<svg width="14" height="14" viewBox="0 0 14 14" fill="none" xmlns="http://www.w3.org/2000/svg">
<path d="M11.2 0C11.9426 0 12.6548 0.294999 13.1799 0.820101C13.705 1.3452 14 2.05739 14 2.8V11.2C14 11.9426 13.705 12.6548 13.1799 13.1799C12.6548 13.705 11.9426 14 11.2 14H2.8C2.05739 14 1.3452 13.705 0.820101 13.1799C0.294999 12.6548 0 11.9426 0 11.2V2.8C0 2.05739 0.294999 1.3452 0.820101 0.820101C1.3452 0.294999 2.05739 0 2.8 0H11.2ZM11.2 1.4H2.8C2.4468 1.39989 2.1066 1.53328 1.84762 1.77345C1.58863 2.01361 1.42999 2.34279 1.4035 2.695L1.4 2.8V11.2C1.39989 11.5532 1.53328 11.8934 1.77345 12.1524C2.01361 12.4114 2.34279 12.57 2.695 12.5965L2.8 12.6H11.2C11.5532 12.6001 11.8934 12.4667 12.1524 12.2266C12.4114 11.9864 12.57 11.6572 12.5965 11.305L12.6 11.2V2.8C12.6001 2.4468 12.4667 2.1066 12.2266 1.84762C11.9864 1.58863 11.6572 1.42999 11.305 1.4035L11.2 1.4ZM9.905 8.6C10.2763 8.6 10.6324 8.7475 10.8949 9.01005C11.1575 9.2726 11.305 9.6287 11.305 10C11.305 10.3713 11.1575 10.7274 10.8949 10.9899C10.6324 11.2525 10.2763 11.4 9.905 11.4C9.5337 11.4 9.1776 11.2525 8.91505 10.9899C8.6525 10.7274 8.505 10.3713 8.505 10C8.505 9.6287 8.6525 9.2726 8.91505 9.01005C9.1776 8.7475 9.5337 8.6 9.905 8.6ZM7 5.6C7.3713 5.6 7.7274 5.7475 7.98995 6.01005C8.2525 6.2726 8.4 6.6287 8.4 7C8.4 7.3713 8.2525 7.7274 7.98995 7.98995C7.7274 8.2525 7.3713 8.4 7 8.4C6.6287 8.4 6.2726 8.2525 6.01005 7.98995C5.7475 7.7274 5.6 7.3713 5.6 7C5.6 6.6287 5.7475 6.2726 6.01005 6.01005C6.2726 5.7475 6.6287 5.6 7 5.6ZM3.98995 2.58995C4.36125 2.58995 4.71735 2.73745 4.9799 3C5.24245 3.26255 5.38995 3.61865 5.38995 3.98995C5.38995 4.36125 5.24245 4.71735 4.9799 4.9799C4.71735 5.24245 4.36125 5.38995 3.98995 5.38995C3.61865 5.38995 3.26255 5.24245 3 4.9799C2.73745 4.71735 2.58995 4.36125 2.58995 3.98995C2.58995 3.61865 2.73745 3.26255 3 3C3.26255 2.73745 3.61865 2.58995 3.98995 2.58995Z" fill="white"/>
</svg>
