<svg width="29" height="30" viewBox="0 0 29 30" fill="none" xmlns="http://www.w3.org/2000/svg">
    <g clip-path="url(#clip0_2042_759)">
        <path fill-rule="evenodd" clip-rule="evenodd"
            d="M0 15.2007C0 7.23853 6.47778 0.760742 14.44 0.760742C22.4022 0.760742 28.88 7.23853 28.88 15.2007C28.88 23.163 22.4022 29.6407 14.44 29.6407C6.47778 29.6407 0 23.163 0 15.2007ZM2.888 15.2007C2.888 21.5702 8.07052 26.7527 14.44 26.7527C20.8095 26.7527 25.992 21.5702 25.992 15.2007C25.992 8.83126 20.8095 3.64874 14.44 3.64874C8.07052 3.64874 2.888 8.83126 2.888 15.2007ZM10.4258 8.20268C11.4908 7.13776 12.9346 6.53865 14.4406 6.53674C15.9467 6.53827 17.3905 7.1373 18.4552 8.20235C19.52 9.2674 20.1187 10.7114 20.1198 12.2174C20.1198 14.5221 18.4215 15.8976 17.2967 16.8088L17.2925 16.8122C17.2727 16.8283 17.2529 16.8442 17.2333 16.86C16.9715 17.0707 16.7214 17.2722 16.5199 17.4736C15.9308 18.0613 15.8846 18.5956 15.8831 18.6187L15.8846 19.5327H12.9966V18.5696C12.9966 18.3992 13.0385 16.87 14.4796 15.4303C14.7977 15.1257 15.1307 14.837 15.4774 14.5654C16.5387 13.7076 17.2333 13.0809 17.2333 12.2174C17.2333 10.6767 15.9799 9.42474 14.4406 9.42474C12.9013 9.42474 11.6479 10.6767 11.6479 12.2174H8.7599C8.7618 10.7114 9.36092 9.26761 10.4258 8.20268ZM15.8846 23.8647V20.9767H12.9966V23.8647H15.8846Z"
            fill="#13152C" />
    </g>
    <defs>
        <clipPath id="clip0_2042_759">
            <rect width="28.88" height="28.88" fill="white" transform="translate(0 0.760742)" />
        </clipPath>
    </defs>
</svg>
    