<svg width="17" height="16" viewBox="0 0 17 16" fill="none" xmlns="http://www.w3.org/2000/svg">
    <path
        d="M15.3275 13.3261C14.0075 12.688 13.25 11.2905 13.25 9.50051V8.42113C13.2505 8.17063 13.1756 7.92578 13.0349 7.71852C12.8942 7.51126 12.6943 7.35122 12.4613 7.25926L10.9075 6.64613C10.8465 6.62187 10.7975 6.57457 10.771 6.51446C10.7446 6.45435 10.7429 6.38625 10.7663 6.32488L12.0994 3.01238C12.2018 2.76416 12.2531 2.49786 12.2503 2.22937C12.2476 1.96088 12.1908 1.6957 12.0834 1.44962C11.9759 1.20355 11.8201 0.981627 11.625 0.797088C11.43 0.61255 11.1998 0.469174 10.9481 0.375508C10.4576 0.195008 9.9161 0.212853 9.43855 0.425253C8.961 0.637652 8.58508 1.02787 8.39064 1.51301L8.38626 1.52426L7.07376 4.84238C7.0618 4.87308 7.0438 4.90107 7.02083 4.92469C6.99785 4.94831 6.97037 4.96708 6.94001 4.97988C6.91055 4.99286 6.87882 4.99987 6.84664 5.00051C6.81446 5.00116 6.78247 4.99542 6.75251 4.98363L5.16251 4.33988C4.93339 4.24706 4.6818 4.22465 4.43988 4.27553C4.19796 4.32641 3.97671 4.44826 3.80439 4.62551C2.44126 6.02738 1.75001 7.66801 1.75001 9.50051C1.74655 11.3718 2.47015 13.1713 3.76814 14.5193C3.83846 14.5927 3.92298 14.6511 4.01657 14.6908C4.11015 14.7306 4.21084 14.7509 4.31251 14.7505H15C15.1696 14.7503 15.3341 14.6927 15.4667 14.587C15.5993 14.4813 15.6922 14.3338 15.7302 14.1686C15.7682 14.0033 15.7491 13.83 15.676 13.677C15.6028 13.524 15.48 13.4003 15.3275 13.3261ZM4.76189 5.79613L6.19126 6.37551C6.40515 6.46112 6.63383 6.50366 6.86419 6.50068C7.09455 6.49771 7.32206 6.44928 7.53366 6.35817C7.74526 6.26706 7.93679 6.13507 8.09726 5.96976C8.25773 5.80446 8.38398 5.60909 8.46876 5.39488L9.77814 2.08238C9.8273 1.95954 9.92145 1.86005 10.0414 1.8042C10.1614 1.74834 10.2981 1.74032 10.4238 1.78176C10.4869 1.80513 10.5446 1.841 10.5935 1.88722C10.6424 1.93344 10.6815 1.98906 10.7084 2.05075C10.7353 2.11244 10.7495 2.17892 10.7501 2.24621C10.7507 2.31351 10.7377 2.38023 10.7119 2.44238C10.7118 2.44467 10.7118 2.44697 10.7119 2.44926L9.37501 5.76863C9.20507 6.19979 9.21277 6.68069 9.39641 7.10619C9.58006 7.53169 9.92471 7.86716 10.355 8.03926L11.75 8.59113V9.50051C11.75 9.56301 11.75 9.62988 11.7531 9.69426L4.10064 6.63176C4.29735 6.33525 4.51854 6.05573 4.76189 5.79613ZM7.79626 13.2505C7.12309 12.5786 6.64578 11.7359 6.41564 10.813C6.36591 10.6203 6.24167 10.4553 6.07025 10.3542C5.89883 10.2531 5.69427 10.2242 5.50157 10.2739C5.30888 10.3237 5.14383 10.4479 5.04274 10.6193C4.94164 10.7908 4.91278 10.9953 4.96251 11.188C5.14926 11.9205 5.45522 12.6173 5.86814 13.2505H4.64064C3.741 12.2085 3.24726 10.8771 3.25001 9.50051C3.24749 8.99053 3.31928 8.48291 3.46314 7.99363L12.005 11.4099C12.1885 12.076 12.4978 12.7007 12.9163 13.2505H7.79626Z"
        fill="#F7F7F7" fill-opacity="1" />
</svg>
    