<svg width="17" height="16" viewBox="0 0 17 16" fill="none" xmlns="http://www.w3.org/2000/svg">
    <g clip-path="url(#clip0_9405_56409)">
        <path
            d="M4.17238 6.79274L3.22323 6.47791L3.22304 6.47849L4.17238 6.79274ZM4.5087 5.42083L5.49491 5.25531L5.49491 5.25531L4.5087 5.42083ZM4.92306 3.24636L4.08175 2.7058L4.08094 2.70707L4.92306 3.24636ZM12.0765 3.24636L12.9186 2.70707L12.9178 2.7058L12.0765 3.24636ZM12.4909 5.42083L11.5046 5.25531V5.25531L12.4909 5.42083ZM12.8272 6.79274L13.7765 6.47849L13.7763 6.47791L12.8272 6.79274ZM13.8812 10.6754L14.3362 9.78475L14.324 9.77873L13.8812 10.6754ZM14.8582 11.5789L14.0085 12.1062L14.0094 12.1076L14.8582 11.5789ZM14.7329 14.7138L15.435 15.4259L15.4362 15.4247L14.7329 14.7138ZM2.26784 14.7138L2.97054 14.0023H2.97054L2.26784 14.7138ZM2.14172 11.5789L2.99053 12.1076L2.9914 12.1062L2.14172 11.5789ZM3.11874 10.6754L2.67592 9.77865L2.66381 9.78483L3.11874 10.6754ZM12.2316 9.99506L11.916 10.944L12.2316 9.99506ZM10.8467 2.15359L10.0749 2.78941L10.8467 2.15359ZM10.9192 2.21029L10.4868 3.11195L10.9192 2.21029ZM6.15286 2.15359L5.38102 1.51777L6.15286 2.15359ZM4.57364 6.02071L3.77102 5.42423L4.57364 6.02071ZM4.60616 5.82355L5.55808 5.51719L4.60616 5.82355ZM12.3934 5.82355L13.3453 6.12991L12.3934 5.82355ZM12.4259 6.02071L13.2285 5.42422L12.4259 6.02071ZM3.01542 7.80127C3.01542 8.8486 3.3626 9.78287 4.06538 10.5442L5.53499 9.18766C5.19142 8.81547 5.01542 8.3733 5.01542 7.80127H3.01542ZM3.22304 6.47849C3.08257 6.90283 3.01542 7.34571 3.01542 7.80127H5.01542C5.01542 7.54432 5.05291 7.31485 5.12172 7.10699L3.22304 6.47849ZM3.77102 5.42423C3.53238 5.74534 3.3493 6.09784 3.22323 6.47791L5.12152 7.10757C5.18085 6.92873 5.26528 6.76654 5.37627 6.6172L3.77102 5.42423ZM3.5225 5.58634C3.55355 5.77139 3.59724 5.9528 3.65424 6.12991L5.55808 5.51719C5.53185 5.43571 5.51057 5.34863 5.49491 5.25531L3.5225 5.58634ZM3.46386 4.88644C3.46386 5.1208 3.48355 5.35429 3.5225 5.58634L5.49491 5.25531C5.47406 5.13111 5.46386 5.00834 5.46386 4.88644H3.46386ZM4.08094 2.70707C3.66305 3.35961 3.46386 4.09666 3.46386 4.88644H5.46386C5.46386 4.44552 5.5708 4.08918 5.76517 3.78566L4.08094 2.70707ZM5.64788 1.30863C4.99875 1.61997 4.47465 2.09431 4.08175 2.7058L5.76436 3.78692C5.96711 3.47138 6.21453 3.255 6.51278 3.11195L5.64788 1.30863ZM6.71442 0.429139C6.19994 0.697494 5.75481 1.06402 5.38102 1.51777L6.92469 2.78941C7.13576 2.5332 7.37332 2.34118 7.63937 2.20241L6.71442 0.429139ZM8.49978 0C7.86885 0 7.2681 0.140339 6.71442 0.429139L7.63937 2.20241C7.89287 2.07018 8.17404 2 8.49978 2V0ZM10.2851 0.429139C9.73146 0.140339 9.1307 0 8.49978 0V2C8.82552 2 9.10668 2.07018 9.36019 2.20241L10.2851 0.429139ZM11.6185 1.51777C11.2447 1.06402 10.7996 0.697494 10.2851 0.429139L9.36019 2.20241C9.62624 2.34118 9.8638 2.5332 10.0749 2.78941L11.6185 1.51777ZM12.9178 2.7058C12.5249 2.09431 12.0008 1.61997 11.3517 1.30863L10.4868 3.11195C10.785 3.255 11.0324 3.47137 11.2352 3.78692L12.9178 2.7058ZM13.5357 4.88644C13.5357 4.09666 13.3365 3.35961 12.9186 2.70707L11.2344 3.78566C11.4288 4.08918 11.5357 4.44552 11.5357 4.88644H13.5357ZM13.4771 5.58634C13.516 5.35428 13.5357 5.1208 13.5357 4.88644H11.5357C11.5357 5.00834 11.5255 5.13111 11.5046 5.25531L13.4771 5.58634ZM13.3453 6.12991C13.4023 5.9528 13.446 5.77139 13.4771 5.58634L11.5046 5.25531C11.489 5.34863 11.4677 5.4357 11.4415 5.51719L13.3453 6.12991ZM13.7763 6.47791C13.6503 6.09784 13.4672 5.74534 13.2285 5.42422L11.6233 6.6172C11.7343 6.76654 11.8187 6.92873 11.878 7.10757L13.7763 6.47791ZM13.9841 7.80127C13.9841 7.34571 13.917 6.90283 13.7765 6.47849L11.8778 7.10699C11.9466 7.31485 11.9841 7.54432 11.9841 7.80127H13.9841ZM12.9342 10.5442C13.637 9.78287 13.9841 8.8486 13.9841 7.80127H11.9841C11.9841 8.3733 11.8081 8.81547 11.4646 9.18766L12.9342 10.5442ZM11.916 10.944C12.4263 11.1137 12.9337 11.3227 13.4384 11.572L14.324 9.77873C13.74 9.49035 13.1477 9.2459 12.5472 9.04617L11.916 10.944ZM13.4263 11.5659C13.6674 11.6891 13.8578 11.8633 14.0085 12.1062L15.7079 11.0516C15.3687 10.505 14.9078 10.0769 14.3361 9.78483L13.4263 11.5659ZM14.0094 12.1076C14.1547 12.3409 14.2265 12.5897 14.2265 12.876H16.2265C16.2265 12.2212 16.0528 11.6052 15.707 11.0502L14.0094 12.1076ZM14.2265 12.876V13.5404H16.2265V12.876H14.2265ZM14.2265 13.5404C14.2265 13.726 14.1717 13.8624 14.0296 14.0029L15.4362 15.4247C15.9523 14.9141 16.2265 14.2682 16.2265 13.5404H14.2265ZM14.0308 14.0017C13.8882 14.1424 13.7443 14.2012 13.5449 14.2012V16.2012C14.2704 16.2012 14.9185 15.9351 15.435 15.4259L14.0308 14.0017ZM13.5449 14.2012H3.45507V16.2012H13.5449V14.2012ZM3.45507 14.2012C3.2557 14.2012 3.11242 14.1424 2.97054 14.0023L1.56514 15.4253C2.08133 15.9351 2.72955 16.2012 3.45507 16.2012V14.2012ZM2.97054 14.0023C2.82811 13.8616 2.77344 13.7255 2.77344 13.5404H0.773438C0.773438 14.2687 1.04836 14.9149 1.56514 15.4253L2.97054 14.0023ZM2.77344 13.5404V12.876H0.773438V13.5404H2.77344ZM2.77344 12.876C2.77344 12.5897 2.84521 12.3409 2.99053 12.1076L1.2929 11.0502C0.947189 11.6052 0.773438 12.2212 0.773438 12.876H2.77344ZM2.9914 12.1062C3.14213 11.8633 3.33254 11.6891 3.57367 11.5659L2.66381 9.78483C2.09216 10.0769 1.63121 10.505 1.29203 11.0516L2.9914 12.1062ZM3.56152 11.572C4.06613 11.3228 4.57343 11.1138 5.08353 10.9441L4.45224 9.04632C3.85192 9.24602 3.25979 9.49042 2.67596 9.77873L3.56152 11.572ZM11.4646 9.18766C10.9489 9.74626 11.1507 10.6894 11.916 10.944L12.5472 9.04617C13.2041 9.26465 13.3723 10.0696 12.9342 10.5442L11.4646 9.18766ZM4.06538 10.5442C3.62737 10.0697 3.79543 9.26481 4.45224 9.04632L5.08353 10.9441C5.84893 10.6895 6.05063 9.74627 5.53499 9.18766L4.06538 10.5442ZM10.0749 2.78941C10.1883 2.92706 10.3294 3.03646 10.4868 3.11195L11.3517 1.30863C11.4531 1.35727 11.5446 1.42804 11.6185 1.51777L10.0749 2.78941ZM6.51278 3.11195C6.67017 3.03646 6.8113 2.92706 6.92469 2.78941L5.38102 1.51777C5.45494 1.42804 5.54647 1.35727 5.64788 1.30863L6.51278 3.11195ZM5.37627 6.6172C5.61146 6.30072 5.67831 5.89077 5.55808 5.51719L3.65424 6.12991C3.57718 5.89045 3.61987 5.62761 3.77102 5.42423L5.37627 6.6172ZM11.4415 5.51719C11.3212 5.89077 11.3881 6.30073 11.6233 6.6172L13.2285 5.42422C13.3797 5.62761 13.4224 5.89045 13.3453 6.12991L11.4415 5.51719Z"
            fill="#F7F7F7" fill-opacity="1" />
    </g>
    <defs>
        <clipPath id="clip0_9405_56409">
            <rect width="16" height="16" fill="white" transform="translate(0.5)" />
        </clipPath>
    </defs>
</svg>
    