<svg width="20" height="21" viewBox="0 0 20 21" fill="none" xmlns="http://www.w3.org/2000/svg">
    <path
        d="M9.9987 10.5007C9.08203 10.5007 8.29731 10.1743 7.64453 9.52148C6.99175 8.86871 6.66536 8.08398 6.66536 7.16732C6.66536 6.25065 6.99175 5.46593 7.64453 4.81315C8.29731 4.16037 9.08203 3.83398 9.9987 3.83398C10.9154 3.83398 11.7001 4.16037 12.3529 4.81315C13.0056 5.46593 13.332 6.25065 13.332 7.16732C13.332 8.08398 13.0056 8.86871 12.3529 9.52148C11.7001 10.1743 10.9154 10.5007 9.9987 10.5007ZM3.33203 17.1673V14.834C3.33203 14.3618 3.4537 13.9279 3.69703 13.5323C3.94036 13.1368 4.26314 12.8345 4.66536 12.6257C5.52648 12.1951 6.40148 11.8723 7.29036 11.6573C8.17925 11.4423 9.08203 11.3345 9.9987 11.334C10.9154 11.3334 11.8181 11.4412 12.707 11.6573C13.5959 11.8734 14.4709 12.1962 15.332 12.6257C15.7348 12.834 16.0579 13.1362 16.3012 13.5323C16.5445 13.9284 16.6659 14.3623 16.6654 14.834V17.1673H3.33203ZM4.9987 15.5007H14.9987V14.834C14.9987 14.6812 14.9606 14.5423 14.8845 14.4173C14.8084 14.2923 14.7076 14.1951 14.582 14.1257C13.832 13.7507 13.0751 13.4695 12.3112 13.2823C11.5473 13.0951 10.7765 13.0012 9.9987 13.0007C9.22092 13.0001 8.45009 13.094 7.6862 13.2823C6.92231 13.4707 6.16536 13.7518 5.41536 14.1257C5.29036 14.1951 5.18953 14.2923 5.11286 14.4173C5.0362 14.5423 4.99814 14.6812 4.9987 14.834V15.5007ZM9.9987 8.83398C10.457 8.83398 10.8495 8.67093 11.1762 8.34482C11.5029 8.01871 11.6659 7.62621 11.6654 7.16732C11.6648 6.70843 11.5018 6.31621 11.1762 5.99065C10.8506 5.6651 10.4581 5.50176 9.9987 5.50065C9.53925 5.49954 9.14703 5.66287 8.82203 5.99065C8.49703 6.31843 8.3337 6.71065 8.33203 7.16732C8.33036 7.62398 8.4937 8.01648 8.82203 8.34482C9.15036 8.67315 9.54259 8.83621 9.9987 8.83398Z"
        fill="#F7F7F7" />
</svg>