<svg width="24" height="24" viewBox="0 0 24 24" fill="none" xmlns="http://www.w3.org/2000/svg">
<path d="M11.0762 1.62402C11.6462 1.28207 12.3577 1.28207 12.9277 1.62402L17.0547 4.10059H21.002C22.0513 4.10059 22.9023 4.95164 22.9023 6.00098V20.001C22.9021 21.0501 22.0512 21.9014 21.002 21.9014H3.00195C1.95274 21.9014 1.10176 21.0501 1.10156 20.001V6.00098C1.10156 4.95164 1.95261 4.10059 3.00195 4.10059H6.94922L11.0762 1.62402ZM3.00195 5.90137C2.94672 5.90137 2.90234 5.94575 2.90234 6.00098V20.001C2.90254 20.056 2.94685 20.1006 3.00195 20.1006H21.002C21.0571 20.1006 21.1014 20.056 21.1016 20.001V6.00098C21.1016 5.94575 21.0572 5.90137 21.002 5.90137H3.00195ZM10.002 17.001C10.5542 17.001 11.002 17.4487 11.002 18.001C11.0018 18.5185 10.6085 18.9448 10.1045 18.9961L10.002 19.001H5.00195L4.89941 18.9961C4.3954 18.9448 4.00214 18.5185 4.00195 18.001C4.00195 17.4487 4.44967 17.001 5.00195 17.001H10.002ZM19.002 13.001C19.5542 13.001 20.002 13.4487 20.002 14.001V18.001L19.9971 18.1035C19.9456 18.6075 19.5195 19.001 19.002 19.001H13.002C12.4844 19.001 12.0583 18.6075 12.0068 18.1035L12.002 18.001V14.001C12.002 13.4487 12.4497 13.001 13.002 13.001H19.002ZM13.8018 17.2012H18.2021V14.8008H13.8018V17.2012ZM10.002 7.00098C10.5542 7.00098 11.002 7.44869 11.002 8.00098V15.001C11.0018 15.5185 10.6085 15.9448 10.1045 15.9961L10.002 16.001H5.00195L4.89941 15.9961C4.42911 15.9482 4.05489 15.5738 4.00684 15.1035L4.00195 15.001V8.00098C4.00195 7.44869 4.44967 7.00098 5.00195 7.00098H10.002ZM5.80176 14.2012H9.20215V8.80078H5.80176V14.2012ZM19.002 7.00098C19.5542 7.00098 20.002 7.44869 20.002 8.00098V11.001C20.0018 11.5185 19.6085 11.9448 19.1045 11.9961L19.002 12.001H16.002L15.8994 11.9961C15.4291 11.9482 15.0549 11.5738 15.0068 11.1035L15.002 11.001V8.00098C15.002 7.44869 15.4497 7.00098 16.002 7.00098H19.002ZM16.8018 10.2012H18.2021V8.80078H16.8018V10.2012ZM12.1045 2.99609C12.0412 2.95815 11.9627 2.95815 11.8994 2.99609L10.0576 4.10059H13.9463L12.1045 2.99609Z" fill="#F7F7F7"/>
</svg>
