<svg width="28" height="28" viewBox="0 0 28 28" fill="none" xmlns="http://www.w3.org/2000/svg">
    <path
        d="M9.32715 11.292C9.34774 11.5808 9.41511 11.925 9.58398 12.2764C9.77631 12.6764 10.2443 13.3499 11.1445 13.6084L11.3301 13.6543C11.898 13.7729 12.5077 13.9389 13.0332 14.1582C13.453 14.3334 13.7073 14.4968 13.8447 14.6104L13.9453 14.7061C14.0436 14.8222 14.2694 15.2291 14.5088 16.042C14.6732 16.6005 14.8074 17.2191 14.9141 17.8193L15.0117 18.4111C15.1824 19.5246 15.9858 20.0779 16.4102 20.2812C16.813 20.4742 17.2036 20.5328 17.5068 20.542V23.2979C17.5068 23.6958 17.3488 24.078 17.0674 24.3594C16.786 24.6406 16.4038 24.7988 16.0059 24.7988H5.50098C5.10309 24.7988 4.72087 24.6405 4.43945 24.3594C4.15808 24.078 4.00008 23.6958 4 23.2979V12.793C4 12.395 4.15807 12.0129 4.43945 11.7314C4.72089 11.45 5.10296 11.292 5.50098 11.292H9.32715ZM8.50195 20.7461L7.60156 19.3955L5.80078 22.998H15.7061L11.6533 16.6943L8.50195 20.7461ZM17.3477 4.12891C17.3739 3.95733 17.8077 3.95733 17.834 4.12891C18.0874 5.78427 18.5722 7.99042 19.4355 9.00684C20.3036 10.0285 22.0649 10.5696 23.3682 10.8418C23.5436 10.8784 23.5436 11.3042 23.3682 11.3408C22.0648 11.6131 20.3035 12.1539 19.4355 13.1758C18.5722 14.1922 18.0874 16.3983 17.834 18.0537C17.8071 18.2247 17.3745 18.2248 17.3477 18.0537C17.0943 16.3983 16.6095 14.1922 15.7461 13.1758C14.8781 12.154 13.1169 11.613 11.8135 11.3408C11.6381 11.3042 11.6381 10.8784 11.8135 10.8418C13.1167 10.5696 14.878 10.0285 15.7461 9.00684C16.6094 7.99042 17.0943 5.78427 17.3477 4.12891ZM7.60156 14.8936C6.85573 14.8936 6.25105 15.4983 6.25098 16.2441C6.25104 16.99 6.85573 17.5946 7.60156 17.5947C8.34745 17.5947 8.95208 16.9901 8.95215 16.2441C8.95208 15.4983 8.34745 14.8936 7.60156 14.8936Z"
        fill="#F7F7F7" fill-opacity="0.7" />
</svg>