<svg width="16" height="16" viewBox="0 0 16 16" fill="none" xmlns="http://www.w3.org/2000/svg">
<path d="M0.799759 4.88707C1.01185 4.88707 1.21525 4.80284 1.36523 4.6529C1.5152 4.50297 1.59945 4.29962 1.59945 4.08758V3.93567C1.59945 3.72364 1.5152 3.52028 1.36523 3.37035C1.21525 3.22042 1.01185 3.13618 0.799759 3.13618C0.587668 3.13618 0.384264 3.22042 0.234293 3.37035C0.0843219 3.52028 6.90776e-05 3.72364 6.90776e-05 3.93567V4.08758C6.90776e-05 4.29962 0.0843219 4.50297 0.234293 4.6529C0.384264 4.80284 0.587668 4.88707 0.799759 4.88707ZM0.799759 1.6891C0.916203 1.68722 1.03083 1.65994 1.13563 1.60915C1.34772 1.57523 1.53764 1.45846 1.66362 1.28454C1.7896 1.11061 1.8413 0.893783 1.80737 0.681745C1.77343 0.469707 1.65664 0.27983 1.48267 0.153886C1.3087 0.0279414 1.09182 -0.0237539 0.879728 0.0101722H0.799759C0.579886 0.028367 0.375093 0.129241 0.226685 0.29245C0.0782758 0.455659 -0.00270692 0.66906 6.90776e-05 0.889613C0.010336 1.09465 0.0991 1.28788 0.247973 1.42927C0.396846 1.57066 0.594418 1.64939 0.799759 1.64913V1.6891ZM7.90901 1.60915H8.08494C8.29703 1.60915 8.50043 1.52492 8.6504 1.37499C8.80037 1.22506 8.88463 1.0217 8.88463 0.809664C8.88463 0.597625 8.80037 0.394272 8.6504 0.244338C8.50043 0.0944041 8.29703 0.0101722 8.08494 0.0101722H7.90901C7.69692 0.0101722 7.49351 0.0944041 7.34354 0.244338C7.19357 0.394272 7.10932 0.597625 7.10932 0.809664C7.10932 1.0217 7.19357 1.22506 7.34354 1.37499C7.49351 1.52492 7.69692 1.60915 7.90901 1.60915ZM4.3104 1.60915H4.47833C4.69042 1.60915 4.89383 1.52492 5.0438 1.37499C5.19377 1.22506 5.27802 1.0217 5.27802 0.809664C5.27802 0.597625 5.19377 0.394272 5.0438 0.244338C4.89383 0.0944041 4.69042 0.0101722 4.47833 0.0101722H4.3104C4.09831 0.0101722 3.8949 0.0944041 3.74493 0.244338C3.59496 0.394272 3.51071 0.597625 3.51071 0.809664C3.51071 1.0217 3.59496 1.22506 3.74493 1.37499C3.8949 1.52492 4.09831 1.60915 4.3104 1.60915ZM15.1942 14.401C15.0777 14.4029 14.9631 14.4302 14.8583 14.481C14.7001 14.5551 14.5706 14.679 14.4894 14.8337C14.4083 14.9884 14.3801 15.1654 14.4091 15.3377C14.4382 15.5099 14.5228 15.6679 14.6501 15.7875C14.7774 15.9071 14.9405 15.9818 15.1142 16H15.1942C15.4141 15.9818 15.6188 15.8809 15.7673 15.7177C15.9157 15.5545 15.9966 15.3411 15.9939 15.1206C15.974 14.9227 15.881 14.7393 15.7332 14.6062C15.5853 14.4732 15.3931 14.4 15.1942 14.401ZM15.1942 10.6994C14.9821 10.6994 14.7787 10.7836 14.6287 10.9335C14.4787 11.0835 14.3945 11.2868 14.3945 11.4989V11.6668C14.3945 11.8788 14.4787 12.0821 14.6287 12.2321C14.7787 12.382 14.9821 12.4662 15.1942 12.4662C15.4063 12.4662 15.6097 12.382 15.7597 12.2321C15.9096 12.0821 15.9939 11.8788 15.9939 11.6668V11.5228C15.9939 11.3108 15.9096 11.1075 15.7597 10.9575C15.6097 10.8076 15.4063 10.7234 15.1942 10.7234V10.6994ZM15.1942 7.10166C14.9821 7.10166 14.7787 7.18589 14.6287 7.33583C14.4787 7.48576 14.3945 7.68911 14.3945 7.90115V8.07704C14.3945 8.28908 14.4787 8.49243 14.6287 8.64237C14.7787 8.7923 14.9821 8.87653 15.1942 8.87653C15.4063 8.87653 15.6097 8.7923 15.7597 8.64237C15.9096 8.49243 15.9939 8.28908 15.9939 8.07704V7.90115C15.9897 7.6919 15.9036 7.49263 15.7541 7.34613C15.6045 7.19964 15.4035 7.11761 15.1942 7.11765V7.10166ZM12.0754 14.401H11.9155C11.7034 14.401 11.5 14.4852 11.35 14.6352C11.2 14.7851 11.1158 14.9885 11.1158 15.2005C11.1158 15.4125 11.2 15.6159 11.35 15.7658C11.5 15.9158 11.7034 16 11.9155 16H12.0754C12.2875 16 12.4909 15.9158 12.6409 15.7658C12.7908 15.6159 12.8751 15.4125 12.8751 15.2005C12.8751 14.9885 12.7908 14.7851 12.6409 14.6352C12.4909 14.4852 12.2875 14.401 12.0754 14.401Z" fill="#F7F7F7"/>
<path fill-rule="evenodd" clip-rule="evenodd" d="M0.309815 6.63938C0.159844 6.78931 0.075592 6.99266 0.075592 7.2047V14.8638C0.0194086 14.9852 -0.00542767 15.1187 0.00335598 15.2521C0.0121396 15.3856 0.0542618 15.5147 0.125869 15.6276C0.197476 15.7406 0.29628 15.8338 0.413234 15.8987C0.530188 15.9636 0.661556 15.9981 0.795313 15.9991H8.87218C9.08428 15.9991 9.28768 15.9149 9.43765 15.7649C9.58762 15.615 9.67188 15.4117 9.67188 15.1996V7.2047C9.67188 6.99266 9.58762 6.78931 9.43765 6.63938C9.28768 6.48944 9.08428 6.40521 8.87218 6.40521C8.8005 6.39618 8.72796 6.39618 8.65627 6.40521H0.875282C0.663191 6.40521 0.459786 6.48944 0.309815 6.63938ZM1.67497 10.6985L2.21876 10.1468C2.57075 9.79775 3.04646 9.60188 3.54225 9.60188C4.03804 9.60188 4.51375 9.79775 4.86574 10.1468L8.0645 13.3448V8.00419H1.66698L1.67497 10.6985ZM6.85697 14.4001H1.67497V12.953L3.35432 11.2821C3.37887 11.2572 3.40813 11.2374 3.44039 11.2239C3.47265 11.2104 3.50728 11.2035 3.54225 11.2035C3.57722 11.2035 3.61184 11.2104 3.64411 11.2239C3.67637 11.2374 3.70562 11.2572 3.73018 11.2821L6.85697 14.4001Z" fill="#F7F7F7"/>
<path fill-rule="evenodd" clip-rule="evenodd" d="M10.9991 0.25H15.7491V5H14.2491V2.81066L9.02941 8.03033L7.96875 6.96967L13.1884 1.75H10.9991V0.25Z" fill="#F7F7F7"/>
</svg>
