<svg width="512" height="512" viewBox="0 0 512 512" xmlns="http://www.w3.org/2000/svg">
    <defs>
        <linearGradient id="grad" x1="0%" y1="0%" x2="100%" y2="100%">
            <stop offset="0%" style="stop-color:#6366f1;stop-opacity:1" />
            <stop offset="100%" style="stop-color:#8b5cf6;stop-opacity:1" />
        </linearGradient>
        <filter id="shadow" x="-20%" y="-20%" width="140%" height="140%">
            <feDropShadow dx="0" dy="2" stdDeviation="3" flood-color="rgba(0,0,0,0.3)"/>
        </filter>
    </defs>
    
    <!-- Background circle -->
    <circle cx="256" cy="256" r="218" fill="url(#grad)" filter="url(#shadow)"/>
    
    <!-- Image icon (simplified mdi-image-auto-adjust) -->
    <g transform="translate(112, 112)" fill="white">
        <!-- Main image rectangle -->
        <rect x="0" y="0" width="288" height="216" rx="15" 
              stroke="white" stroke-width="15" fill="none"/>
        
        <!-- Image content lines -->
        <rect x="36" y="54" width="216" height="15" rx="7.5"/>
        <rect x="36" y="90" width="144" height="15" rx="7.5"/>
        <rect x="36" y="125.99999999999999" width="180" height="15" rx="7.5"/>
        
        <!-- Auto-adjust indicators -->
        <circle cx="306" cy="72" r="28.8" fill="none" stroke="white" stroke-width="15"/>
        <path d="M 288 72 L 324 72 M 306 54 L 306 90" 
              stroke="white" stroke-width="15" stroke-linecap="round"/>
        
        <!-- Corner adjustment handles -->
        <circle cx="36" cy="36" r="21.599999999999998" fill="none" stroke="white" stroke-width="15"/>
        <circle cx="324" cy="36" r="21.599999999999998" fill="none" stroke="white" stroke-width="15"/>
        <circle cx="36" cy="324" r="21.599999999999998" fill="none" stroke="white" stroke-width="15"/>
        <circle cx="324" cy="324" r="21.599999999999998" fill="none" stroke="white" stroke-width="15"/>
        
        <!-- Adjustment arrows -->
        <path d="M 18 36 L 54 36 M 36 18 L 36 54" 
              stroke="white" stroke-width="15" stroke-linecap="round"/>
        <path d="M 306 36 L 342 36 M 324 18 L 324 54" 
              stroke="white" stroke-width="15" stroke-linecap="round"/>
        <path d="M 18 324 L 54 324 M 36 306 L 36 342" 
              stroke="white" stroke-width="15" stroke-linecap="round"/>
        <path d="M 306 324 L 342 324 M 324 306 L 324 342" 
              stroke="white" stroke-width="15" stroke-linecap="round"/>
    </g>
</svg>