<svg width="32" height="32" viewBox="0 0 32 32" xmlns="http://www.w3.org/2000/svg">
    <defs>
        <linearGradient id="grad" x1="0%" y1="0%" x2="100%" y2="100%">
            <stop offset="0%" style="stop-color:#6366f1;stop-opacity:1" />
            <stop offset="100%" style="stop-color:#8b5cf6;stop-opacity:1" />
        </linearGradient>
        <filter id="shadow" x="-20%" y="-20%" width="140%" height="140%">
            <feDropShadow dx="0" dy="2" stdDeviation="3" flood-color="rgba(0,0,0,0.3)"/>
        </filter>
    </defs>
    
    <!-- Background circle -->
    <circle cx="16" cy="16" r="14" fill="url(#grad)" filter="url(#shadow)"/>
    
    <!-- Image icon (simplified mdi-image-auto-adjust) -->
    <g transform="translate(6.4, 6.4)" fill="white">
        <!-- Main image rectangle -->
        <rect x="0" y="0" width="19.200000000000003" height="14.399999999999999" rx="2" 
              stroke="white" stroke-width="2" fill="none"/>
        
        <!-- Image content lines -->
        <rect x="2.4000000000000004" y="3.5999999999999996" width="14.399999999999999" height="2" rx="1"/>
        <rect x="2.4000000000000004" y="6" width="9.600000000000001" height="2" rx="1"/>
        <rect x="2.4000000000000004" y="8.399999999999999" width="12" height="2" rx="1"/>
        
        <!-- Auto-adjust indicators -->
        <circle cx="20.4" cy="4.800000000000001" r="1.92" fill="none" stroke="white" stroke-width="2"/>
        <path d="M 19.200000000000003 4.800000000000001 L 21.6 4.800000000000001 M 20.4 3.5999999999999996 L 20.4 6" 
              stroke="white" stroke-width="2" stroke-linecap="round"/>
        
        <!-- Corner adjustment handles -->
        <circle cx="2.4000000000000004" cy="2.4000000000000004" r="1.44" fill="none" stroke="white" stroke-width="2"/>
        <circle cx="21.6" cy="2.4000000000000004" r="1.44" fill="none" stroke="white" stroke-width="2"/>
        <circle cx="2.4000000000000004" cy="21.6" r="1.44" fill="none" stroke="white" stroke-width="2"/>
        <circle cx="21.6" cy="21.6" r="1.44" fill="none" stroke="white" stroke-width="2"/>
        
        <!-- Adjustment arrows -->
        <path d="M 1.2000000000000002 2.4000000000000004 L 3.5999999999999996 2.4000000000000004 M 2.4000000000000004 1.2000000000000002 L 2.4000000000000004 3.5999999999999996" 
              stroke="white" stroke-width="2" stroke-linecap="round"/>
        <path d="M 20.4 2.4000000000000004 L 22.799999999999997 2.4000000000000004 M 21.6 1.2000000000000002 L 21.6 3.5999999999999996" 
              stroke="white" stroke-width="2" stroke-linecap="round"/>
        <path d="M 1.2000000000000002 21.6 L 3.5999999999999996 21.6 M 2.4000000000000004 20.4 L 2.4000000000000004 22.799999999999997" 
              stroke="white" stroke-width="2" stroke-linecap="round"/>
        <path d="M 20.4 21.6 L 22.799999999999997 21.6 M 21.6 20.4 L 21.6 22.799999999999997" 
              stroke="white" stroke-width="2" stroke-linecap="round"/>
    </g>
</svg>