<svg width="384" height="384" viewBox="0 0 384 384" xmlns="http://www.w3.org/2000/svg">
    <defs>
        <linearGradient id="grad" x1="0%" y1="0%" x2="100%" y2="100%">
            <stop offset="0%" style="stop-color:#6366f1;stop-opacity:1" />
            <stop offset="100%" style="stop-color:#8b5cf6;stop-opacity:1" />
        </linearGradient>
        <filter id="shadow" x="-20%" y="-20%" width="140%" height="140%">
            <feDropShadow dx="0" dy="2" stdDeviation="3" flood-color="rgba(0,0,0,0.3)"/>
        </filter>
    </defs>
    
    <!-- Background circle -->
    <circle cx="192" cy="192" r="163.5" fill="url(#grad)" filter="url(#shadow)"/>
    
    <!-- Image icon (simplified mdi-image-auto-adjust) -->
    <g transform="translate(84, 84)" fill="white">
        <!-- Main image rectangle -->
        <rect x="0" y="0" width="216" height="162" rx="11.25" 
              stroke="white" stroke-width="11.25" fill="none"/>
        
        <!-- Image content lines -->
        <rect x="27" y="40.5" width="162" height="11.25" rx="5.625"/>
        <rect x="27" y="67.5" width="108" height="11.25" rx="5.625"/>
        <rect x="27" y="94.5" width="135" height="11.25" rx="5.625"/>
        
        <!-- Auto-adjust indicators -->
        <circle cx="229.5" cy="54" r="21.6" fill="none" stroke="white" stroke-width="11.25"/>
        <path d="M 216 54 L 243 54 M 229.5 40.5 L 229.5 67.5" 
              stroke="white" stroke-width="11.25" stroke-linecap="round"/>
        
        <!-- Corner adjustment handles -->
        <circle cx="27" cy="27" r="16.2" fill="none" stroke="white" stroke-width="11.25"/>
        <circle cx="243" cy="27" r="16.2" fill="none" stroke="white" stroke-width="11.25"/>
        <circle cx="27" cy="243" r="16.2" fill="none" stroke="white" stroke-width="11.25"/>
        <circle cx="243" cy="243" r="16.2" fill="none" stroke="white" stroke-width="11.25"/>
        
        <!-- Adjustment arrows -->
        <path d="M 13.5 27 L 40.5 27 M 27 13.5 L 27 40.5" 
              stroke="white" stroke-width="11.25" stroke-linecap="round"/>
        <path d="M 229.5 27 L 256.5 27 M 243 13.5 L 243 40.5" 
              stroke="white" stroke-width="11.25" stroke-linecap="round"/>
        <path d="M 13.5 243 L 40.5 243 M 27 229.5 L 27 256.5" 
              stroke="white" stroke-width="11.25" stroke-linecap="round"/>
        <path d="M 229.5 243 L 256.5 243 M 243 229.5 L 243 256.5" 
              stroke="white" stroke-width="11.25" stroke-linecap="round"/>
    </g>
</svg>