<svg width="96" height="96" viewBox="0 0 96 96" xmlns="http://www.w3.org/2000/svg">
    <defs>
        <linearGradient id="grad" x1="0%" y1="0%" x2="100%" y2="100%">
            <stop offset="0%" style="stop-color:#6366f1;stop-opacity:1" />
            <stop offset="100%" style="stop-color:#8b5cf6;stop-opacity:1" />
        </linearGradient>
        <filter id="shadow" x="-20%" y="-20%" width="140%" height="140%">
            <feDropShadow dx="0" dy="2" stdDeviation="3" flood-color="rgba(0,0,0,0.3)"/>
        </filter>
    </defs>
    
    <!-- Background circle -->
    <circle cx="48" cy="48" r="41" fill="url(#grad)" filter="url(#shadow)"/>
    
    <!-- Image icon (simplified mdi-image-auto-adjust) -->
    <g transform="translate(20.8, 20.8)" fill="white">
        <!-- Main image rectangle -->
        <rect x="0" y="0" width="54.400000000000006" height="40.8" rx="2.8333333333333335" 
              stroke="white" stroke-width="2.8333333333333335" fill="none"/>
        
        <!-- Image content lines -->
        <rect x="6.800000000000001" y="10.2" width="40.8" height="2.8333333333333335" rx="1.4166666666666667"/>
        <rect x="6.800000000000001" y="17" width="27.200000000000003" height="2.8333333333333335" rx="1.4166666666666667"/>
        <rect x="6.800000000000001" y="23.799999999999997" width="34" height="2.8333333333333335" rx="1.4166666666666667"/>
        
        <!-- Auto-adjust indicators -->
        <circle cx="57.8" cy="13.600000000000001" r="5.44" fill="none" stroke="white" stroke-width="2.8333333333333335"/>
        <path d="M 54.400000000000006 13.600000000000001 L 61.2 13.600000000000001 M 57.8 10.2 L 57.8 17" 
              stroke="white" stroke-width="2.8333333333333335" stroke-linecap="round"/>
        
        <!-- Corner adjustment handles -->
        <circle cx="6.800000000000001" cy="6.800000000000001" r="4.08" fill="none" stroke="white" stroke-width="2.8333333333333335"/>
        <circle cx="61.2" cy="6.800000000000001" r="4.08" fill="none" stroke="white" stroke-width="2.8333333333333335"/>
        <circle cx="6.800000000000001" cy="61.2" r="4.08" fill="none" stroke="white" stroke-width="2.8333333333333335"/>
        <circle cx="61.2" cy="61.2" r="4.08" fill="none" stroke="white" stroke-width="2.8333333333333335"/>
        
        <!-- Adjustment arrows -->
        <path d="M 3.4000000000000004 6.800000000000001 L 10.2 6.800000000000001 M 6.800000000000001 3.4000000000000004 L 6.800000000000001 10.2" 
              stroke="white" stroke-width="2.8333333333333335" stroke-linecap="round"/>
        <path d="M 57.8 6.800000000000001 L 64.6 6.800000000000001 M 61.2 3.4000000000000004 L 61.2 10.2" 
              stroke="white" stroke-width="2.8333333333333335" stroke-linecap="round"/>
        <path d="M 3.4000000000000004 61.2 L 10.2 61.2 M 6.800000000000001 57.8 L 6.800000000000001 64.6" 
              stroke="white" stroke-width="2.8333333333333335" stroke-linecap="round"/>
        <path d="M 57.8 61.2 L 64.6 61.2 M 61.2 57.8 L 61.2 64.6" 
              stroke="white" stroke-width="2.8333333333333335" stroke-linecap="round"/>
    </g>
</svg>