<svg width="16" height="16" viewBox="0 0 16 16" xmlns="http://www.w3.org/2000/svg">
    <defs>
        <linearGradient id="grad" x1="0%" y1="0%" x2="100%" y2="100%">
            <stop offset="0%" style="stop-color:#6366f1;stop-opacity:1" />
            <stop offset="100%" style="stop-color:#8b5cf6;stop-opacity:1" />
        </linearGradient>
        <filter id="shadow" x="-20%" y="-20%" width="140%" height="140%">
            <feDropShadow dx="0" dy="2" stdDeviation="3" flood-color="rgba(0,0,0,0.3)"/>
        </filter>
    </defs>
    
    <!-- Background circle -->
    <circle cx="8" cy="8" r="7" fill="url(#grad)" filter="url(#shadow)"/>
    
    <!-- Image icon (simplified mdi-image-auto-adjust) -->
    <g transform="translate(3.2, 3.2)" fill="white">
        <!-- Main image rectangle -->
        <rect x="0" y="0" width="9.600000000000001" height="7.199999999999999" rx="2" 
              stroke="white" stroke-width="2" fill="none"/>
        
        <!-- Image content lines -->
        <rect x="1.2000000000000002" y="1.7999999999999998" width="7.199999999999999" height="2" rx="1"/>
        <rect x="1.2000000000000002" y="3" width="4.800000000000001" height="2" rx="1"/>
        <rect x="1.2000000000000002" y="4.199999999999999" width="6" height="2" rx="1"/>
        
        <!-- Auto-adjust indicators -->
        <circle cx="10.2" cy="2.4000000000000004" r="0.96" fill="none" stroke="white" stroke-width="2"/>
        <path d="M 9.600000000000001 2.4000000000000004 L 10.8 2.4000000000000004 M 10.2 1.7999999999999998 L 10.2 3" 
              stroke="white" stroke-width="2" stroke-linecap="round"/>
        
        <!-- Corner adjustment handles -->
        <circle cx="1.2000000000000002" cy="1.2000000000000002" r="0.72" fill="none" stroke="white" stroke-width="2"/>
        <circle cx="10.8" cy="1.2000000000000002" r="0.72" fill="none" stroke="white" stroke-width="2"/>
        <circle cx="1.2000000000000002" cy="10.8" r="0.72" fill="none" stroke="white" stroke-width="2"/>
        <circle cx="10.8" cy="10.8" r="0.72" fill="none" stroke="white" stroke-width="2"/>
        
        <!-- Adjustment arrows -->
        <path d="M 0.6000000000000001 1.2000000000000002 L 1.7999999999999998 1.2000000000000002 M 1.2000000000000002 0.6000000000000001 L 1.2000000000000002 1.7999999999999998" 
              stroke="white" stroke-width="2" stroke-linecap="round"/>
        <path d="M 10.2 1.2000000000000002 L 11.399999999999999 1.2000000000000002 M 10.8 0.6000000000000001 L 10.8 1.7999999999999998" 
              stroke="white" stroke-width="2" stroke-linecap="round"/>
        <path d="M 0.6000000000000001 10.8 L 1.7999999999999998 10.8 M 1.2000000000000002 10.2 L 1.2000000000000002 11.399999999999999" 
              stroke="white" stroke-width="2" stroke-linecap="round"/>
        <path d="M 10.2 10.8 L 11.399999999999999 10.8 M 10.8 10.2 L 10.8 11.399999999999999" 
              stroke="white" stroke-width="2" stroke-linecap="round"/>
    </g>
</svg>