<svg width="144" height="144" viewBox="0 0 144 144" xmlns="http://www.w3.org/2000/svg">
    <defs>
        <linearGradient id="grad" x1="0%" y1="0%" x2="100%" y2="100%">
            <stop offset="0%" style="stop-color:#6366f1;stop-opacity:1" />
            <stop offset="100%" style="stop-color:#8b5cf6;stop-opacity:1" />
        </linearGradient>
        <filter id="shadow" x="-20%" y="-20%" width="140%" height="140%">
            <feDropShadow dx="0" dy="2" stdDeviation="3" flood-color="rgba(0,0,0,0.3)"/>
        </filter>
    </defs>
    
    <!-- Background circle -->
    <circle cx="72" cy="72" r="61.5" fill="url(#grad)" filter="url(#shadow)"/>
    
    <!-- Image icon (simplified mdi-image-auto-adjust) -->
    <g transform="translate(31.200000000000003, 31.200000000000003)" fill="white">
        <!-- Main image rectangle -->
        <rect x="0" y="0" width="81.60000000000001" height="61.199999999999996" rx="4.25" 
              stroke="white" stroke-width="4.25" fill="none"/>
        
        <!-- Image content lines -->
        <rect x="10.200000000000001" y="15.299999999999999" width="61.199999999999996" height="4.25" rx="2.125"/>
        <rect x="10.200000000000001" y="25.5" width="40.800000000000004" height="4.25" rx="2.125"/>
        <rect x="10.200000000000001" y="35.699999999999996" width="51" height="4.25" rx="2.125"/>
        
        <!-- Auto-adjust indicators -->
        <circle cx="86.7" cy="20.400000000000002" r="8.16" fill="none" stroke="white" stroke-width="4.25"/>
        <path d="M 81.60000000000001 20.400000000000002 L 91.8 20.400000000000002 M 86.7 15.299999999999999 L 86.7 25.5" 
              stroke="white" stroke-width="4.25" stroke-linecap="round"/>
        
        <!-- Corner adjustment handles -->
        <circle cx="10.200000000000001" cy="10.200000000000001" r="6.12" fill="none" stroke="white" stroke-width="4.25"/>
        <circle cx="91.8" cy="10.200000000000001" r="6.12" fill="none" stroke="white" stroke-width="4.25"/>
        <circle cx="10.200000000000001" cy="91.8" r="6.12" fill="none" stroke="white" stroke-width="4.25"/>
        <circle cx="91.8" cy="91.8" r="6.12" fill="none" stroke="white" stroke-width="4.25"/>
        
        <!-- Adjustment arrows -->
        <path d="M 5.1000000000000005 10.200000000000001 L 15.299999999999999 10.200000000000001 M 10.200000000000001 5.1000000000000005 L 10.200000000000001 15.299999999999999" 
              stroke="white" stroke-width="4.25" stroke-linecap="round"/>
        <path d="M 86.7 10.200000000000001 L 96.89999999999999 10.200000000000001 M 91.8 5.1000000000000005 L 91.8 15.299999999999999" 
              stroke="white" stroke-width="4.25" stroke-linecap="round"/>
        <path d="M 5.1000000000000005 91.8 L 15.299999999999999 91.8 M 10.200000000000001 86.7 L 10.200000000000001 96.89999999999999" 
              stroke="white" stroke-width="4.25" stroke-linecap="round"/>
        <path d="M 86.7 91.8 L 96.89999999999999 91.8 M 91.8 86.7 L 91.8 96.89999999999999" 
              stroke="white" stroke-width="4.25" stroke-linecap="round"/>
    </g>
</svg>