<svg width="72" height="72" viewBox="0 0 72 72" xmlns="http://www.w3.org/2000/svg">
    <defs>
        <linearGradient id="grad" x1="0%" y1="0%" x2="100%" y2="100%">
            <stop offset="0%" style="stop-color:#6366f1;stop-opacity:1" />
            <stop offset="100%" style="stop-color:#8b5cf6;stop-opacity:1" />
        </linearGradient>
        <filter id="shadow" x="-20%" y="-20%" width="140%" height="140%">
            <feDropShadow dx="0" dy="2" stdDeviation="3" flood-color="rgba(0,0,0,0.3)"/>
        </filter>
    </defs>
    
    <!-- Background circle -->
    <circle cx="36" cy="36" r="31" fill="url(#grad)" filter="url(#shadow)"/>
    
    <!-- Image icon (simplified mdi-image-auto-adjust) -->
    <g transform="translate(15.2, 15.2)" fill="white">
        <!-- Main image rectangle -->
        <rect x="0" y="0" width="41.6" height="31.2" rx="2.1666666666666665" 
              stroke="white" stroke-width="2.1666666666666665" fill="none"/>
        
        <!-- Image content lines -->
        <rect x="5.2" y="7.8" width="31.2" height="2.1666666666666665" rx="1.0833333333333333"/>
        <rect x="5.2" y="13" width="20.8" height="2.1666666666666665" rx="1.0833333333333333"/>
        <rect x="5.2" y="18.2" width="26" height="2.1666666666666665" rx="1.0833333333333333"/>
        
        <!-- Auto-adjust indicators -->
        <circle cx="44.199999999999996" cy="10.4" r="4.16" fill="none" stroke="white" stroke-width="2.1666666666666665"/>
        <path d="M 41.6 10.4 L 46.800000000000004 10.4 M 44.199999999999996 7.8 L 44.199999999999996 13" 
              stroke="white" stroke-width="2.1666666666666665" stroke-linecap="round"/>
        
        <!-- Corner adjustment handles -->
        <circle cx="5.2" cy="5.2" r="3.12" fill="none" stroke="white" stroke-width="2.1666666666666665"/>
        <circle cx="46.800000000000004" cy="5.2" r="3.12" fill="none" stroke="white" stroke-width="2.1666666666666665"/>
        <circle cx="5.2" cy="46.800000000000004" r="3.12" fill="none" stroke="white" stroke-width="2.1666666666666665"/>
        <circle cx="46.800000000000004" cy="46.800000000000004" r="3.12" fill="none" stroke="white" stroke-width="2.1666666666666665"/>
        
        <!-- Adjustment arrows -->
        <path d="M 2.6 5.2 L 7.8 5.2 M 5.2 2.6 L 5.2 7.8" 
              stroke="white" stroke-width="2.1666666666666665" stroke-linecap="round"/>
        <path d="M 44.199999999999996 5.2 L 49.4 5.2 M 46.800000000000004 2.6 L 46.800000000000004 7.8" 
              stroke="white" stroke-width="2.1666666666666665" stroke-linecap="round"/>
        <path d="M 2.6 46.800000000000004 L 7.8 46.800000000000004 M 5.2 44.199999999999996 L 5.2 49.4" 
              stroke="white" stroke-width="2.1666666666666665" stroke-linecap="round"/>
        <path d="M 44.199999999999996 46.800000000000004 L 49.4 46.800000000000004 M 46.800000000000004 44.199999999999996 L 46.800000000000004 49.4" 
              stroke="white" stroke-width="2.1666666666666665" stroke-linecap="round"/>
    </g>
</svg>