<svg width="192" height="192" viewBox="0 0 192 192" xmlns="http://www.w3.org/2000/svg">
    <defs>
        <linearGradient id="grad" x1="0%" y1="0%" x2="100%" y2="100%">
            <stop offset="0%" style="stop-color:#6366f1;stop-opacity:1" />
            <stop offset="100%" style="stop-color:#8b5cf6;stop-opacity:1" />
        </linearGradient>
        <filter id="shadow" x="-20%" y="-20%" width="140%" height="140%">
            <feDropShadow dx="0" dy="2" stdDeviation="3" flood-color="rgba(0,0,0,0.3)"/>
        </filter>
    </defs>
    
    <!-- Background circle -->
    <circle cx="96" cy="96" r="82" fill="url(#grad)" filter="url(#shadow)"/>
    
    <!-- Image icon (simplified mdi-image-auto-adjust) -->
    <g transform="translate(41.6, 41.6)" fill="white">
        <!-- Main image rectangle -->
        <rect x="0" y="0" width="108.80000000000001" height="81.6" rx="5.666666666666667" 
              stroke="white" stroke-width="5.666666666666667" fill="none"/>
        
        <!-- Image content lines -->
        <rect x="13.600000000000001" y="20.4" width="81.6" height="5.666666666666667" rx="2.8333333333333335"/>
        <rect x="13.600000000000001" y="34" width="54.400000000000006" height="5.666666666666667" rx="2.8333333333333335"/>
        <rect x="13.600000000000001" y="47.599999999999994" width="68" height="5.666666666666667" rx="2.8333333333333335"/>
        
        <!-- Auto-adjust indicators -->
        <circle cx="115.6" cy="27.200000000000003" r="10.88" fill="none" stroke="white" stroke-width="5.666666666666667"/>
        <path d="M 108.80000000000001 27.200000000000003 L 122.4 27.200000000000003 M 115.6 20.4 L 115.6 34" 
              stroke="white" stroke-width="5.666666666666667" stroke-linecap="round"/>
        
        <!-- Corner adjustment handles -->
        <circle cx="13.600000000000001" cy="13.600000000000001" r="8.16" fill="none" stroke="white" stroke-width="5.666666666666667"/>
        <circle cx="122.4" cy="13.600000000000001" r="8.16" fill="none" stroke="white" stroke-width="5.666666666666667"/>
        <circle cx="13.600000000000001" cy="122.4" r="8.16" fill="none" stroke="white" stroke-width="5.666666666666667"/>
        <circle cx="122.4" cy="122.4" r="8.16" fill="none" stroke="white" stroke-width="5.666666666666667"/>
        
        <!-- Adjustment arrows -->
        <path d="M 6.800000000000001 13.600000000000001 L 20.4 13.600000000000001 M 13.600000000000001 6.800000000000001 L 13.600000000000001 20.4" 
              stroke="white" stroke-width="5.666666666666667" stroke-linecap="round"/>
        <path d="M 115.6 13.600000000000001 L 129.2 13.600000000000001 M 122.4 6.800000000000001 L 122.4 20.4" 
              stroke="white" stroke-width="5.666666666666667" stroke-linecap="round"/>
        <path d="M 6.800000000000001 122.4 L 20.4 122.4 M 13.600000000000001 115.6 L 13.600000000000001 129.2" 
              stroke="white" stroke-width="5.666666666666667" stroke-linecap="round"/>
        <path d="M 115.6 122.4 L 129.2 122.4 M 122.4 115.6 L 122.4 129.2" 
              stroke="white" stroke-width="5.666666666666667" stroke-linecap="round"/>
    </g>
</svg>