<svg width="700" height="700" viewBox="0 0 675 675" fill="none" xmlns="http://www.w3.org/2000/svg">
<g transform="translate(117,251)">
<path d="M220.5 205.5C286.222 205.5 339.5 152.222 339.5 86.5001C339.5 20.7782 286.222 -42.4999 220.5 -32.4999C154.778 -32.4999 101.5 20.7782 101.5 86.5001C101.5 152.222 154.778 205.5 220.5 205.5Z" stroke="#2B2D3F"/>
<path d="M220.5 314.5C346.421 314.5 448.5 212.421 448.5 86.5002C448.5 -39.4207 346.421 -141.5 220.5 -141.5C94.5791 -141.5 -7.50001 -39.4208 -7.50002 86.5001C-7.50003 212.421 94.579 314.5 220.5 314.5Z" stroke="#2B2D3F"/>
<path d="M220.5 420.5C404.963 420.5 554.5 270.963 554.5 86.5001C554.5 -97.9629 404.963 -247.5 220.5 -247.5C36.0372 -247.5 -113.5 -97.963 -113.5 86.5001C-113.5 270.963 36.0371 420.5 220.5 420.5Z" stroke="#2B2D3F"/>
<path d="M220.5 148.5C254.742 148.5 282.5 120.742 282.5 86.5001C282.5 52.2585 254.742 24.5001 220.5 24.5001C186.259 24.5001 158.5 52.2585 158.5 86.5001C158.5 120.742 186.259 148.5 220.5 148.5Z" stroke="#2B2D3F"/>
</g>
</svg>
