<svg width="20" height="16" viewBox="0 0 20 16" fill="none" xmlns="http://www.w3.org/2000/svg">
<path d="M16.9307 1.74404C15.6558 1.16908 14.2892 0.744109 12.86 0.502458C12.8473 0.500015 12.8341 0.50159 12.8223 0.506964C12.8105 0.512339 12.8007 0.521247 12.7942 0.532456C12.6192 0.839936 12.4242 1.24074 12.2875 1.55739C10.7718 1.33093 9.23089 1.33093 7.71518 1.55739C7.56296 1.20646 7.39131 0.864288 7.20103 0.532456C7.19458 0.521109 7.18482 0.511999 7.17306 0.506341C7.16129 0.500684 7.14809 0.498748 7.13519 0.500792C5.7069 0.742442 4.34028 1.16741 3.06448 1.74321C3.0535 1.74781 3.0442 1.75566 3.03781 1.76571C0.444554 5.57796 -0.266258 9.29605 0.0828981 12.9675C0.0838697 12.9765 0.086661 12.9852 0.091102 12.993C0.095543 13.0009 0.101541 13.0078 0.108731 13.0133C1.62235 14.1153 3.31059 14.9547 5.10275 15.4965C5.11525 15.5003 5.12861 15.5003 5.1411 15.4964C5.15358 15.4926 5.16461 15.485 5.17275 15.4748C5.5584 14.9591 5.90014 14.4119 6.19439 13.8391C6.19847 13.8313 6.20083 13.8226 6.20129 13.8138C6.20175 13.805 6.20032 13.7962 6.19708 13.788C6.19384 13.7797 6.18887 13.7723 6.18251 13.7662C6.17615 13.7601 6.16855 13.7554 6.16022 13.7524C5.62191 13.5497 5.10032 13.3051 4.60027 13.0208C4.59128 13.0157 4.58371 13.0084 4.57823 12.9996C4.57275 12.9908 4.56954 12.9808 4.56888 12.9705C4.56822 12.9602 4.57013 12.9499 4.57445 12.9405C4.57876 12.9311 4.58534 12.9229 4.5936 12.9166C4.6986 12.8391 4.80359 12.7583 4.90359 12.6775C4.91259 12.6702 4.92344 12.6656 4.93491 12.6641C4.94639 12.6627 4.95805 12.6644 4.96859 12.6692C8.241 14.1391 11.7851 14.1391 15.0191 12.6692C15.0297 12.6641 15.0415 12.6621 15.0531 12.6635C15.0648 12.6648 15.0758 12.6694 15.085 12.6767C15.185 12.7583 15.2891 12.8391 15.395 12.9166C15.4033 12.9227 15.41 12.9308 15.4144 12.9401C15.4189 12.9495 15.421 12.9597 15.4205 12.9701C15.42 12.9804 15.4169 12.9904 15.4116 12.9993C15.4063 13.0081 15.3988 13.0155 15.39 13.0208C14.8916 13.3075 14.3733 13.5499 13.8292 13.7516C13.8208 13.7546 13.8132 13.7594 13.8068 13.7656C13.8005 13.7718 13.7955 13.7793 13.7923 13.7876C13.789 13.7959 13.7876 13.8048 13.7881 13.8136C13.7886 13.8225 13.7909 13.8312 13.795 13.8391C14.095 14.4115 14.4383 14.9565 14.8158 15.474C14.8237 15.4846 14.8346 15.4925 14.8471 15.4967C14.8596 15.5009 14.8732 15.5011 14.8858 15.4973C16.681 14.957 18.372 14.1172 19.8873 13.0133C19.8947 13.0081 19.9009 13.0014 19.9055 12.9937C19.9101 12.9859 19.913 12.9773 19.914 12.9683C20.3306 8.72359 19.2157 5.03549 16.9566 1.76738C16.951 1.75675 16.9419 1.74848 16.9307 1.74404ZM6.68354 10.7318C5.69857 10.7318 4.88609 9.84101 4.88609 8.74858C4.88609 7.65532 5.68274 6.76538 6.68354 6.76538C7.69184 6.76538 8.49682 7.66282 8.48099 8.74858C8.48099 9.84184 7.68435 10.7318 6.68354 10.7318ZM13.3292 10.7318C12.3434 10.7318 11.5317 9.84101 11.5317 8.74858C11.5317 7.65532 12.3275 6.76538 13.3292 6.76538C14.3375 6.76538 15.1425 7.66282 15.1266 8.74858C15.1266 9.84184 14.3383 10.7318 13.3292 10.7318Z" fill="#F7F7F7"/>
</svg>
