<svg width="18" height="16" viewBox="0 0 18 16" fill="none" xmlns="http://www.w3.org/2000/svg">
<path d="M16.7143 0H1.28571C0.575634 0 0 0.596954 0 1.33333C0 2.06971 0.575634 2.66667 1.28571 2.66667H16.7143C17.4244 2.66667 18 2.06971 18 1.33333C18 0.596954 17.4244 0 16.7143 0Z" fill="#F7F7F7"/>
<path d="M16.7143 6.66667H1.28571C0.575634 6.66667 0 7.26362 0 8C0 8.73638 0.575634 9.33333 1.28571 9.33333H16.7143C17.4244 9.33333 18 8.73638 18 8C18 7.26362 17.4244 6.66667 16.7143 6.66667Z" fill="#F7F7F7"/>
<path d="M1.28571 13.3333H16.7143C17.4244 13.3333 18 13.9303 18 14.6667C18 15.403 17.4244 16 16.7143 16H1.28571C0.575634 16 0 15.403 0 14.6667C0 13.9303 0.575634 13.3333 1.28571 13.3333Z" fill="#F7F7F7"/>
</svg>
