<svg width="17" height="16" viewBox="0 0 17 16" fill="none" xmlns="http://www.w3.org/2000/svg">
    <g clip-path="url(#clip0_9405_56419)">
        <path fill-rule="evenodd" clip-rule="evenodd"
            d="M14.2737 9.63807C13.5608 12.1556 11.2458 14 8.5 14C6.75935 14 5.19183 13.2588 4.09583 12.0748C4.47998 11.4219 4.90449 11.0257 5.47612 10.8113C6.19651 10.5412 7.33434 10.4894 9.25746 10.9701C10.9987 11.4055 12.537 10.8072 13.6348 10.0968C13.8622 9.9497 14.0756 9.79477 14.2737 9.63807ZM14.3648 6.72738C14.3044 6.7771 14.2489 6.83474 14.1999 6.90009C13.998 7.16936 13.3912 7.87223 12.5482 8.41776C11.7069 8.96217 10.7453 9.28054 9.74254 9.02986C7.66566 8.51064 6.05349 8.45881 4.77388 8.93867C3.99578 9.23046 3.40544 9.69345 2.93719 10.2526C2.65527 9.55706 2.5 8.79666 2.5 8C2.5 4.68629 5.18629 2 8.5 2C11.377 2 13.7811 4.02496 14.3648 6.72738ZM16.5 8C16.5 12.4183 12.9183 16 8.5 16C4.08172 16 0.5 12.4183 0.5 8C0.5 3.58172 4.08172 0 8.5 0C12.9183 0 16.5 3.58172 16.5 8Z"
            fill="#F7F7F7" fill-opacity="1" />
    </g>
    <defs>
        <clipPath id="clip0_9405_56419">
            <rect width="16" height="16" fill="white" transform="translate(0.5)" />
        </clipPath>
    </defs>
</svg>
    