<svg stroke="currentColor" fill="none" stroke-width="0" viewBox="0 0 15 15" height="200px"
    width="200px" xmlns="http://www.w3.org/2000/svg">
    <path
        d="M7.85361 1.48959C7.65835 1.29432 7.34176 1.29432 7.1465 1.48959 6.95124 1.68485 6.95124 2.00143 7.1465 2.19669 7.34176 2.39196 7.65835 2.39196 7.85361 2.19669 8.04887 2.00143 8.04887 1.68485 7.85361 1.48959z"
        fill="currentColor" />
    <path
        d="M10.682 4.31801C10.4868 4.12275 10.1702 4.12275 9.97493 4.31801 9.77967 4.51328 9.77967 4.82986 9.97493 5.02512 10.1702 5.22038 10.4868 5.22038 10.682 5.02512 10.8773 4.82986 10.8773 4.51328 10.682 4.31801z"
        fill="currentColor" />
    <path
        d="M12.8034 7.14644C12.9986 6.95118 13.3152 6.95118 13.5105 7.14644C13.7057 7.3417 13.7057 7.65829 13.5105 7.85355C13.3152 8.04881 12.9986 8.04881 12.8034 7.85355C12.6081 7.65828 12.6081 7.3417 12.8034 7.14644Z"
        fill="currentColor" />
    <path
        d="M10.682 9.97487C10.8773 10.1701 10.8773 10.4867 10.682 10.682C10.4868 10.8772 10.1702 10.8772 9.97493 10.682C9.77967 10.4867 9.77967 10.1701 9.97493 9.97487C10.1702 9.7796 10.4868 9.7796 10.682 9.97487z"
        fill="currentColor" />
    <path
        d="M7.1465 13.5104C6.95124 13.3151 6.95124 12.9986 7.1465 12.8033C7.17091 12.7789 7.19721 12.7575 7.22494 12.7392C7.41901 12.6111 7.68275 12.6324 7.85361 12.8033C8.04887 12.9986 8.04887 13.3151 7.85361 13.5104C7.65835 13.7057 7.34176 13.7057 7.1465 13.5104Z"
        fill="currentColor" />
    <path
        d="M4.31807 9.97487C4.12281 10.1701 4.12281 10.4867 4.31807 10.682 4.51334 10.8772 4.82992 10.8772 5.02518 10.682 5.22044 10.4867 5.22044 10.1701 5.02518 9.97487 4.82992 9.7796 4.51334 9.7796 4.31807 9.97487z"
        fill="currentColor" />
    <path
        d="M2.19675 7.85355C2.36761 7.68269 2.38897 7.41895 2.26082 7.22488 2.09046 6.96684 1.71063 6.92546 1.48965 7.14644 1.29439 7.3417 1.29439 7.65829 1.48965 7.85355 1.68491 8.04881 2.00149 8.04881 2.19675 7.85355z"
        fill="currentColor" />
    <path
        d="M5.02518 4.31801C4.82992 4.12275 4.51334 4.12275 4.31807 4.31801 4.12281 4.51328 4.12281 4.82986 4.31807 5.02512 4.51334 5.22038 4.82992 5.22038 5.02518 5.02512 5.22044 4.82986 5.22044 4.51328 5.02518 4.31801z"
        fill="currentColor" />
</svg>