<svg stroke="currentColor" fill="none" stroke-width="0" viewBox="0 0 15 15" height="200px"
    width="200px" xmlns="http://www.w3.org/2000/svg">
    <path
        d="M9.26782 2.9038C9.07256 2.70854 8.75598 2.70854 8.56071 2.9038 8.36545 3.09906 8.36545 3.41564 8.56071 3.61091 8.75598 3.80617 9.07256 3.80617 9.26782 3.61091 9.46308 3.41564 9.46308 3.09906 9.26782 2.9038z"
        fill="currentColor" />
    <path
        d="M12.0962 5.73223C11.901 5.53696 11.5844 5.53696 11.3891 5.73223 11.1939 5.92749 11.1939 6.24407 11.3891 6.43933 11.5844 6.6346 11.901 6.6346 12.0962 6.43933 12.2915 6.24407 12.2915 5.92749 12.0962 5.73223z"
        fill="currentColor" />
    <path
        d="M12.0962 8.56065C12.2915 8.75592 12.2915 9.0725 12.0962 9.26776C11.901 9.46302 11.5844 9.46302 11.3891 9.26776C11.1939 9.0725 11.1939 8.75592 11.3891 8.56065C11.5844 8.36539 11.901 8.36539 12.0962 8.56065Z"
        fill="currentColor" />
    <path
        d="M9.26782 11.3891C9.46308 11.5843 9.46308 11.9009 9.26782 12.0962C9.07256 12.2915 8.75598 12.2915 8.56071 12.0962C8.36545 11.9009 8.36545 11.5843 8.56072 11.3891C8.75598 11.1938 9.07256 11.1938 9.26782 11.3891z"
        fill="currentColor" />
    <path
        d="M5.73229 11.3891C5.53703 11.5843 5.53703 11.9009 5.73229 12.0962 5.92755 12.2914 6.24413 12.2915 6.43939 12.0962 6.63466 11.9009 6.63466 11.5843 6.43939 11.3891 6.24413 11.1938 5.92755 11.1938 5.73229 11.3891z"
        fill="currentColor" />
    <path
        d="M2.90386 8.56065C2.7086 8.75592 2.7086 9.0725 2.90386 9.26776 3.09912 9.46302 3.41571 9.46302 3.61097 9.26776 3.80623 9.0725 3.80623 8.75592 3.61097 8.56065 3.41571 8.36539 3.09912 8.36539 2.90386 8.56065z"
        fill="currentColor" />
    <path
        d="M3.61097 5.73223C3.41571 5.53696 3.09912 5.53696 2.90386 5.73223 2.7086 5.92749 2.7086 6.24407 2.90386 6.43933 3.09912 6.6346 3.41571 6.6346 3.61097 6.43933 3.80623 6.24407 3.80623 5.92749 3.61097 5.73223z"
        fill="currentColor" />
    <path
        d="M6.43939 2.9038C6.24413 2.70854 5.92755 2.70854 5.73229 2.9038 5.53703 3.09906 5.53703 3.41564 5.73229 3.61091 5.92755 3.80617 6.24413 3.80617 6.43939 3.61091 6.63466 3.41564 6.63466 3.09906 6.43939 2.9038z"
        fill="currentColor" />
</svg>