<svg width="17" height="16" viewBox="0 0 17 16" fill="none" xmlns="http://www.w3.org/2000/svg">
    <path
        d="M6.1 9.8C6.43137 9.8 6.7 10.0686 6.7 10.4C6.7 10.5995 6.82868 10.9526 7.15519 11.2693C7.46547 11.5701 7.91898 11.8 8.5 11.8C9.08102 11.8 9.53453 11.5701 9.84481 11.2693C10.1713 10.9526 10.3 10.5995 10.3 10.4C10.3 10.0686 10.5686 9.8 10.9 9.8C11.2314 9.8 11.5 10.0686 11.5 10.4C11.5 11.0005 11.1787 11.6474 10.6802 12.1307C10.1655 12.6299 9.41898 13 8.5 13C7.58102 13 6.83453 12.6299 6.31981 12.1307C5.82132 11.6474 5.5 11.0005 5.5 10.4C5.5 10.0686 5.76863 9.8 6.1 9.8Z"
        fill="#F5F3C2" />
    <path
        d="M5.3 8.8C5.74183 8.8 6.1 8.44182 6.1 8C6.1 7.55818 5.74183 7.2 5.3 7.2C4.85817 7.2 4.5 7.55818 4.5 8C4.5 8.44182 4.85817 8.8 5.3 8.8Z"
        fill="#F5F3C2" />
    <path fill-rule="evenodd" clip-rule="evenodd"
        d="M16.5 8C16.5 12.4183 12.9183 16 8.5 16C4.08172 16 0.5 12.4183 0.5 8C0.5 3.58171 4.08172 0 8.5 0C12.9183 0 16.5 3.58171 16.5 8ZM14.8513 8.79348C14.4605 11.9537 11.7659 14.4 8.5 14.4C4.96538 14.4 2.1 11.5346 2.1 8C2.1 7.64551 2.12882 7.29775 2.18425 6.95894C3.53251 6.93406 4.57105 6.51956 5.33355 5.92312C5.72549 5.61655 6.03523 5.26904 6.2728 4.91704C8.09128 6.94927 10.9792 8.93293 14.8513 8.79348ZM14.8495 7.19192C11.0091 7.34951 8.25994 5.04055 6.72531 2.93567C6.50128 2.62839 6.30646 2.32957 6.14088 2.04883C6.8709 1.7592 7.66686 1.6 8.5 1.6C11.7609 1.6 14.4522 4.03879 14.8495 7.19192ZM4.73896 2.82117C3.85811 3.46196 3.14704 4.32202 2.68593 5.32114C3.43019 5.22461 3.96631 4.96126 4.34777 4.66287C4.7952 4.31289 5.06272 3.88918 5.20009 3.5491C5.03059 3.3009 4.87678 3.05703 4.73896 2.82117Z"
        fill="#F5F3C2" />
</svg>
    