<svg width="16" height="16" viewBox="0 0 16 16" fill="none" xmlns="http://www.w3.org/2000/svg">
<path fill-rule="evenodd" clip-rule="evenodd" d="M6 3H1.38751C1.01952 3 0.666603 3.14618 0.406394 3.40639C0.146184 3.6666 0 4.01952 0 4.38751V14.1001C0 14.4681 0.146184 14.821 0.406394 15.0812C0.666603 15.3414 1.01952 15.4876 1.38751 15.4876H11.1001C11.4681 15.4876 11.821 15.3414 12.0812 15.0812C12.3414 14.821 12.4876 14.4681 12.4876 14.1001V13H10.2938L10.8226 13.8226H1.66502L3.33004 10.4926L4.16254 11.7413L6 9.3789V3ZM4.5788 7.5788C4.5788 8.26847 4.01971 8.82756 3.33004 8.82756C2.64036 8.82756 2.08127 8.26847 2.08127 7.5788C2.08127 6.88913 2.64036 6.33004 3.33004 6.33004C4.01971 6.33004 4.5788 6.88913 4.5788 7.5788Z" fill="#F7F7F7"/>
<rect x="7" y="2" width="8" height="10" rx="1" stroke="#F7F7F7" stroke-width="2" stroke-dasharray="3 3"/>
</svg>
