<svg width="36" height="26" viewBox="0 0 36 26" fill="none" xmlns="http://www.w3.org/2000/svg">
<g clip-path="url(#clip0_8558_12160)">
<path d="M35.445 2C34.752 0.809 33.477 0 32 0H18V2H35.445ZM0 20H36V22H0V20ZM18 12H36V14H18V12ZM18 8H36V10H18V8ZM0 16H36V18H0V16ZM4 26H32C33.477 26 34.752 25.191 35.445 24H0.555C1.248 25.191 2.523 26 4 26ZM18 4H36V6H18V4Z" fill="#B22334"/>
<path d="M0.068 22.679C0.085 22.772 0.104 22.865 0.127 22.956C0.153 23.057 0.185 23.154 0.219 23.252C0.308 23.511 0.416 23.761 0.552 23.995L0.555 24H35.445L35.447 23.996C35.5812 23.7602 35.6924 23.5121 35.779 23.255C35.8449 23.0673 35.8957 22.8747 35.931 22.679C35.972 22.459 36 22.233 36 22H0C0 22.233 0.028 22.458 0.068 22.679ZM0 18H36V20H0V18ZM0 14V16H36V14H18H0ZM18 10H36V12H18V10ZM18 6H36V8H18V6ZM0.128 3.044C0.153 2.942 0.188 2.845 0.22 2.747C0.185273 2.8447 0.15458 2.94378 0.128 3.044ZM18 4H36C36 3.767 35.972 3.541 35.931 3.32C35.896 3.12411 35.8448 2.93145 35.778 2.744C35.6913 2.48581 35.5798 2.23665 35.445 2H18V4Z" fill="#EEEEEE"/>
<path d="M18 0H4C2.93913 0 1.92172 0.421427 1.17157 1.17157C0.421427 1.92172 0 2.93913 0 4L0 14H18V0Z" fill="#3C3B6E"/>
<path d="M2.00101 2.726L2.61901 3.175L2.38301 3.9L3.00001 3.452L3.61801 3.9L3.38201 3.175L4.00001 2.726H3.23601L3.00001 2L2.76501 2.726H2.00101ZM4.00101 4.726L4.61901 5.175L4.38301 5.9L5.00001 5.452L5.61801 5.9L5.38201 5.175L6.00001 4.726H5.23601L5.00001 4L4.76501 4.726H4.00101ZM8.00101 4.726L8.61901 5.175L8.38301 5.9L9.00001 5.452L9.61801 5.9L9.38201 5.175L10 4.726H9.23601L9.00001 4L8.76501 4.726H8.00101ZM12.001 4.726L12.619 5.175L12.383 5.9L13 5.452L13.618 5.9L13.382 5.175L14 4.726H13.236L13 4L12.765 4.726H12.001ZM4.00101 8.726L4.61901 9.175L4.38301 9.9L5.00001 9.452L5.61801 9.9L5.38201 9.175L6.00001 8.726H5.23601L5.00001 8L4.76501 8.726H4.00101ZM8.00101 8.726L8.61901 9.175L8.38301 9.9L9.00001 9.452L9.61801 9.9L9.38201 9.175L10 8.726H9.23601L9.00001 8L8.76501 8.726H8.00101ZM12.001 8.726L12.619 9.175L12.383 9.9L13 9.452L13.618 9.9L13.382 9.175L14 8.726H13.236L13 8L12.765 8.726H12.001ZM6.00101 2.726L6.61901 3.175L6.38301 3.9L7.00001 3.452L7.61801 3.9L7.38201 3.175L8.00001 2.726H7.23601L7.00001 2L6.76501 2.726H6.00101ZM10.001 2.726L10.619 3.175L10.383 3.9L11 3.452L11.618 3.9L11.382 3.175L12 2.726H11.236L11 2L10.765 2.726H10.001ZM14.001 2.726L14.619 3.175L14.383 3.9L15 3.452L15.618 3.9L15.382 3.175L16 2.726H15.236L15 2L14.765 2.726H14.001ZM2.00101 6.726L2.61901 7.175L2.38301 7.9L3.00001 7.452L3.61801 7.9L3.38201 7.175L4.00001 6.726H3.23601L3.00001 6L2.76501 6.726H2.00101ZM6.38301 7.9L7.00001 7.452L7.61801 7.9L7.38201 7.175L8.00001 6.726H7.23601L7.00001 6L6.76501 6.726H6.00101L6.61901 7.175L6.38301 7.9ZM10.001 6.726L10.619 7.175L10.383 7.9L11 7.452L11.618 7.9L11.382 7.175L12 6.726H11.236L11 6L10.765 6.726H10.001ZM14.001 6.726L14.619 7.175L14.383 7.9L15 7.452L15.618 7.9L15.382 7.175L16 6.726H15.236L15 6L14.765 6.726H14.001ZM2.00101 10.726L2.61901 11.175L2.38301 11.9L3.00001 11.452L3.61801 11.9L3.38201 11.175L4.00001 10.726H3.23601L3.00001 10L2.76501 10.726H2.00101ZM6.38301 11.9L7.00001 11.452L7.61801 11.9L7.38201 11.175L8.00001 10.726H7.23601L7.00001 10L6.76501 10.726H6.00101L6.61901 11.175L6.38301 11.9ZM10.001 10.726L10.619 11.175L10.383 11.9L11 11.452L11.618 11.9L11.382 11.175L12 10.726H11.236L11 10L10.765 10.726H10.001ZM14.001 10.726L14.619 11.175L14.383 11.9L15 11.452L15.618 11.9L15.382 11.175L16 10.726H15.236L15 10L14.765 10.726H14.001Z" fill="white"/>
<mask id="mask0_8558_12160" style="mask-type:alpha" maskUnits="userSpaceOnUse" x="1" y="1" width="35" height="25">
<path d="M36 4V22C36 24.2091 34.2091 26 32 26H4C2.80531 26 1.73294 25.4762 1 24.6458L35 1.35418C35.6224 2.05931 36 2.98555 36 4Z" fill="#D9D9D9"/>
</mask>
<g mask="url(#mask0_8558_12160)">
<path d="M0 4.059V8H5.628L0 4.059ZM4.664 26H13V20.163L4.664 26ZM23 20.164V26H31.335L23 20.164ZM0 18V21.941L5.63 18H0ZM31.337 0H23V5.837L31.337 0ZM36 21.942V18H30.369L36 21.942ZM36 8V4.059L30.371 8H36ZM13 0H4.664L13 5.837V0Z" fill="#00247D"/>
<path d="M25.14 18L34.852 24.801C35.3263 24.3124 35.6672 23.7101 35.842 23.052L28.627 18H25.14ZM13 18H10.859L1.14801 24.8C1.66901 25.33 2.33701 25.709 3.08601 25.885L13 18.943V18ZM23 7.99999H25.141L34.852 1.19999C34.3221 0.662265 33.6504 0.286017 32.915 0.11499L23 7.05699V7.99999ZM10.859 7.99999L1.14801 1.19999C0.673966 1.68896 0.332827 2.29103 0.157013 2.94899L7.37201 7.99999H10.859Z" fill="#CF1B2B"/>
<path d="M36 16H21V26H23V20.164L31.335 26H32C32.5313 26.0001 33.0572 25.8941 33.5469 25.6882C34.0367 25.4823 34.4804 25.1807 34.852 24.801L25.14 18H28.627L35.842 23.052C35.935 22.715 36 22.366 36 22V21.942L30.369 18H36V16ZM0 16V18H5.63L0 21.941V22C0 23.091 0.439 24.078 1.148 24.8L10.859 18H13V18.943L3.086 25.884C3.38 25.954 3.684 26 4 26H4.664L13 20.163V26H15V16H0ZM36 4C36.0006 2.95198 35.5881 1.94595 34.852 1.2L25.141 8H23V7.057L32.915 0.115C32.6155 0.0415274 32.3084 0.00293805 32 3.78378e-07H31.337L23 5.837V3.78378e-07H21V10H36V8H30.371L36 4.059V4ZM13 3.78378e-07V5.837L4.664 3.78378e-07H4C3.46862 -0.000231172 2.94257 0.105813 2.45278 0.311895C1.96299 0.517977 1.51936 0.819934 1.148 1.2L10.859 8H7.372L0.157 2.949C0.0577802 3.29071 0.00497341 3.64421 0 4L0 4.059L5.628 8H0V10H15V3.78378e-07H13Z" fill="#EEEEEE"/>
<path d="M21 10V0H15V10H0V16H15V26H21V16H36V10H21Z" fill="#CF1B2B"/>
</g>
<path fill-rule="evenodd" clip-rule="evenodd" d="M-1 25.2153L35.7532 -1L37 0.784751L0.246763 27L-1 25.2153Z" fill="black"/>
</g>
<defs>
<clipPath id="clip0_8558_12160">
<rect width="36" height="26" rx="4" fill="white"/>
</clipPath>
</defs>
</svg>
