<svg width="27" height="18" viewBox="0 0 27 18" fill="none" xmlns="http://www.w3.org/2000/svg">
    <path fill-rule="evenodd" clip-rule="evenodd"
        d="M18.208 4.90909C18.208 6.40358 17.5428 7.74336 16.5 8.64124C16.3475 8.77257 16.2535 8.88616 16.2047 8.96674C16.1967 8.98 16.1906 8.99106 16.1861 9.00001C16.1906 9.00895 16.1967 9.02001 16.2047 9.03327C16.2535 9.11383 16.3475 9.22741 16.5 9.35872C16.6935 9.52533 16.8738 9.70693 17.0393 9.90178C17.1697 10.0554 17.2825 10.15 17.3625 10.1991C17.3756 10.2072 17.3866 10.2133 17.3955 10.2179C17.4044 10.2133 17.4154 10.2072 17.4285 10.1991C17.5086 10.15 17.6214 10.0553 17.7518 9.90174C18.6434 8.85165 19.9739 8.18182 21.458 8.18182C24.1504 8.18182 26.333 10.3797 26.333 13.0909C26.333 15.8021 24.1504 18 21.458 18C19.9739 18 18.6434 17.3302 17.7518 16.2801C17.6214 16.1265 17.5086 16.0318 17.4285 15.9827C17.4154 15.9746 17.4044 15.9685 17.3955 15.964C17.3866 15.9685 17.3756 15.9746 17.3625 15.9827C17.2825 16.0318 17.1697 16.1265 17.0392 16.2801C16.1476 17.3302 14.8171 18 13.333 18C11.6373 18 10.1439 17.1282 9.27051 15.8055C8.39713 17.1282 6.90367 18 5.20801 18C2.51562 18 0.333008 15.8021 0.333008 13.0909C0.333008 10.3797 2.51562 8.18182 5.20801 8.18182C5.541 8.18182 5.7972 8.15727 5.98966 8.10798C6.17318 8.06099 6.23371 8.00825 6.25013 7.9917L8.26921 5.9585C8.28564 5.94196 8.33802 5.88101 8.38469 5.69621C8.43363 5.5024 8.45801 5.24441 8.45801 4.90909C8.45801 2.19787 10.6406 0 13.333 0C16.0254 0 18.208 2.19787 18.208 4.90909ZM8.73756 11.4495C8.51137 11.9443 8.45801 12.5321 8.45801 13.0909C8.45801 14.8984 7.00293 16.3636 5.20801 16.3636C3.41308 16.3636 1.95801 14.8984 1.95801 13.0909C1.95801 11.2834 3.41308 9.81818 5.20801 9.81818C5.99595 9.81818 6.84203 9.70984 7.39918 9.14878L9.41826 7.11559C9.97542 6.55454 10.083 5.70254 10.083 4.90909C10.083 3.10161 11.5381 1.63636 13.333 1.63636C15.1279 1.63636 16.583 3.10161 16.583 4.90909C16.583 5.90515 16.1411 6.79728 15.444 7.39754C14.9622 7.81237 14.5518 8.36168 14.5518 9C14.5518 9.63832 14.9622 10.1876 15.444 10.6024C15.5732 10.7137 15.6937 10.835 15.8042 10.9652C16.2161 11.4503 16.7616 11.8636 17.3955 11.8636C18.0294 11.8636 18.5749 11.4503 18.9868 10.9652C19.5829 10.2632 20.4689 9.81818 21.458 9.81818C23.2529 9.81818 24.708 11.2834 24.708 13.0909C24.708 14.8984 23.2529 16.3636 21.458 16.3636C20.4689 16.3636 19.5829 15.9187 18.9868 15.2167C18.5749 14.7315 18.0294 14.3182 17.3955 14.3182C16.7616 14.3182 16.2161 14.7315 15.8042 15.2167C15.2081 15.9187 14.3222 16.3636 13.333 16.3636C11.5381 16.3636 10.083 14.8984 10.083 13.0909C10.083 12.7396 10.138 12.4013 10.2397 12.0841C10.2457 12.0653 10.2519 12.0465 10.2583 12.0279C10.4488 11.469 10.7853 10.9785 11.222 10.6025C11.5548 10.3159 11.8536 9.96516 12.0066 9.56523C12.075 9.38622 12.1143 9.19736 12.1143 8.99999V7.97144C12.1143 7.95481 12.1042 7.93986 12.089 7.93349C12.0737 7.92712 12.0561 7.93054 12.0444 7.94231L9.12276 10.8844C8.95799 11.0503 8.83254 11.2417 8.73756 11.4495Z"
        fill="#9773FF" />
</svg>
    