<svg width="16" height="16" viewBox="0 0 16 16" fill="none" xmlns="http://www.w3.org/2000/svg">
<path d="M15.5688 4.92918L11.0727 0.434487C10.9351 0.296748 10.7717 0.187478 10.5918 0.112926C10.4119 0.0383733 10.2191 0 10.0244 0C9.82968 0 9.63688 0.0383733 9.45701 0.112926C9.27714 0.187478 9.11373 0.296748 8.97612 0.434487L5.12677 4.29661C4.20591 4.04995 2.4094 3.87291 0.552879 5.37065C0.390756 5.50107 0.257925 5.66416 0.163035 5.84932C0.0681445 6.03448 0.0133233 6.23754 0.00214115 6.44529C-0.00904102 6.65304 0.0236666 6.86081 0.0981341 7.05508C0.172602 7.24935 0.287159 7.42576 0.434346 7.57282L3.80216 10.9409L0.853656 13.8889C0.686648 14.0559 0.592823 14.2824 0.592823 14.5186C0.592823 14.7547 0.686648 14.9812 0.853656 15.1482C1.02066 15.3152 1.24718 15.409 1.48336 15.409C1.71955 15.409 1.94606 15.3152 2.11307 15.1482L5.06157 12.1994L8.43013 15.5667C8.70769 15.8439 9.08387 15.9997 9.47618 16C9.51026 16 9.54508 16 9.5799 15.9963C9.79136 15.981 9.99708 15.9205 10.1832 15.819C10.3692 15.7174 10.5314 15.577 10.6585 15.4074C11.006 14.946 11.4735 14.2126 11.7283 13.3334C11.9832 12.4542 11.9839 11.6386 11.7402 10.8594L15.5703 7.01728C15.8458 6.73954 16.0003 6.36412 16 5.97292C15.9997 5.58173 15.8447 5.20652 15.5688 4.92918ZM10.0674 10.0246C9.93583 10.1566 9.84912 10.3266 9.81948 10.5106C9.78983 10.6945 9.81875 10.8831 9.90216 11.0498C10.1563 11.5579 10.4133 12.6053 9.43692 14.0608L1.93231 6.55803C3.49472 5.47732 4.86081 6.06619 4.96971 6.1136C5.13565 6.19974 5.32506 6.22977 5.50952 6.19919C5.69397 6.16861 5.86354 6.07906 5.9928 5.94397L10.0251 1.89889L14.0997 5.97286L10.0674 10.0246Z" fill="#F7F7F7"/>
</svg>
