<svg width="16" height="16" viewBox="0 0 16 16" fill="none" xmlns="http://www.w3.org/2000/svg">
<path d="M0.799759 4.88707C1.01185 4.88707 1.21525 4.80284 1.36523 4.6529C1.5152 4.50297 1.59945 4.29962 1.59945 4.08758V3.93567C1.59945 3.72364 1.5152 3.52028 1.36523 3.37035C1.21525 3.22042 1.01185 3.13618 0.799759 3.13618C0.587668 3.13618 0.384264 3.22042 0.234293 3.37035C0.0843219 3.52028 6.90776e-05 3.72364 6.90776e-05 3.93567V4.08758C6.90776e-05 4.29962 0.0843219 4.50297 0.234293 4.6529C0.384264 4.80284 0.587668 4.88707 0.799759 4.88707ZM0.799759 1.6891C0.916203 1.68722 1.03083 1.65994 1.13563 1.60915C1.34772 1.57523 1.53764 1.45846 1.66362 1.28454C1.7896 1.11061 1.8413 0.893783 1.80737 0.681745C1.77343 0.469707 1.65664 0.27983 1.48267 0.153886C1.3087 0.0279414 1.09182 -0.0237539 0.879728 0.0101722H0.799759C0.579886 0.028367 0.375093 0.129241 0.226685 0.29245C0.0782758 0.455659 -0.00270692 0.66906 6.90776e-05 0.889613C0.010336 1.09465 0.0991 1.28788 0.247973 1.42927C0.396846 1.57066 0.594418 1.64939 0.799759 1.64913V1.6891ZM14.7064 1.5372C14.831 1.63505 14.9819 1.69368 15.1399 1.70565C15.2979 1.71762 15.4559 1.6824 15.5938 1.60445C15.7317 1.52651 15.8434 1.40934 15.9146 1.26784C15.9859 1.12633 16.0134 0.966863 15.9939 0.809664C15.9939 0.597625 15.9096 0.394271 15.7596 0.244338C15.6097 0.0944041 15.4063 0.0101722 15.1942 0.0101722H15.1142C14.939 0.0102237 14.7687 0.0677968 14.6294 0.174043C14.4901 0.280289 14.3896 0.429327 14.3432 0.598251C14.2969 0.767175 14.3073 0.946636 14.3729 1.10905C14.4386 1.27146 14.5557 1.40784 14.7064 1.49723V1.5372ZM7.90901 1.60915H8.08494C8.29703 1.60915 8.50043 1.52492 8.6504 1.37499C8.80037 1.22506 8.88463 1.0217 8.88463 0.809664C8.88463 0.597625 8.80037 0.394271 8.6504 0.244338C8.50043 0.0944041 8.29703 0.0101722 8.08494 0.0101722H7.90901C7.69691 0.0101722 7.49351 0.0944041 7.34354 0.244338C7.19357 0.394271 7.10931 0.597625 7.10931 0.809664C7.10931 1.0217 7.19357 1.22506 7.34354 1.37499C7.49351 1.52492 7.69691 1.60915 7.90901 1.60915ZM4.3104 1.60915H4.47833C4.69042 1.60915 4.89383 1.52492 5.0438 1.37499C5.19377 1.22506 5.27802 1.0217 5.27802 0.809664C5.27802 0.597625 5.19377 0.394271 5.0438 0.244338C4.89383 0.0944041 4.69042 0.0101722 4.47833 0.0101722H4.3104C4.09831 0.0101722 3.8949 0.0944041 3.74493 0.244338C3.59496 0.394271 3.51071 0.597625 3.51071 0.809664C3.51071 1.0217 3.59496 1.22506 3.74493 1.37499C3.8949 1.52492 4.09831 1.60915 4.3104 1.60915ZM15.1942 14.401C15.0777 14.4029 14.9631 14.4302 14.8583 14.481C14.7001 14.5551 14.5705 14.679 14.4894 14.8337C14.4083 14.9884 14.3801 15.1654 14.4091 15.3377C14.4381 15.5099 14.5228 15.6679 14.6501 15.7875C14.7774 15.9071 14.9405 15.9818 15.1142 16H15.1942C15.4141 15.9818 15.6188 15.8809 15.7673 15.7177C15.9157 15.5545 15.9966 15.3411 15.9939 15.1206C15.974 14.9227 15.881 14.7393 15.7332 14.6062C15.5853 14.4732 15.3931 14.4 15.1942 14.401ZM9.59635 7.20559C9.59635 6.99356 9.5121 6.7902 9.36213 6.64027C9.21216 6.49033 9.00875 6.4061 8.79666 6.4061H1.01568C0.943987 6.39707 0.871448 6.39707 0.799759 6.4061C0.587668 6.4061 0.384264 6.49033 0.234293 6.64027C0.0843219 6.7902 6.90776e-05 6.99356 6.90776e-05 7.20559V15.2005C6.90776e-05 15.4125 0.0843219 15.6159 0.234293 15.7658C0.384264 15.9158 0.587668 16 0.799759 16H8.87663C9.01039 15.999 9.14176 15.9645 9.25871 15.8996C9.37566 15.8347 9.47447 15.7415 9.54607 15.6285C9.61768 15.5156 9.6598 15.3865 9.66859 15.253C9.67737 15.1196 9.65253 14.9861 9.59635 14.8647V7.20559ZM7.99697 14.401H2.81498L5.94177 11.283C5.96632 11.2581 5.99558 11.2383 6.02784 11.2248C6.0601 11.2113 6.09472 11.2044 6.12969 11.2044C6.16467 11.2044 6.19929 11.2113 6.23155 11.2248C6.26381 11.2383 6.29307 11.2581 6.31762 11.283L7.99697 12.9539V14.401ZM7.99697 10.6994L7.45318 10.1477C7.10119 9.79864 6.62549 9.60277 6.12969 9.60277C5.6339 9.60277 5.15819 9.79864 4.80621 10.1477L1.60745 13.3457V8.00508H8.00497L7.99697 10.6994ZM15.1942 10.6994C14.9821 10.6994 14.7787 10.7836 14.6287 10.9335C14.4787 11.0835 14.3945 11.2868 14.3945 11.4989V11.6668C14.3945 11.8788 14.4787 12.0821 14.6287 12.2321C14.7787 12.382 14.9821 12.4662 15.1942 12.4662C15.4063 12.4662 15.6097 12.382 15.7596 12.2321C15.9096 12.0821 15.9939 11.8788 15.9939 11.6668V11.5228C15.9939 11.3108 15.9096 11.1075 15.7596 10.9575C15.6097 10.8076 15.4063 10.7234 15.1942 10.7234V10.6994ZM15.1942 3.50395C14.9821 3.50395 14.7787 3.58818 14.6287 3.73812C14.4787 3.88805 14.3945 4.0914 14.3945 4.30344V4.48732C14.3945 4.69936 14.4787 4.90272 14.6287 5.05265C14.7787 5.20258 14.9821 5.28682 15.1942 5.28682C15.4063 5.28682 15.6097 5.20258 15.7596 5.05265C15.9096 4.90272 15.9939 4.69936 15.9939 4.48732V4.31943C15.9939 4.10739 15.9096 3.90404 15.7596 3.7541C15.6097 3.60417 15.4063 3.51994 15.1942 3.51994V3.50395ZM15.1942 7.10166C14.9821 7.10166 14.7787 7.18589 14.6287 7.33583C14.4787 7.48576 14.3945 7.68911 14.3945 7.90115V8.07704C14.3945 8.28908 14.4787 8.49243 14.6287 8.64237C14.7787 8.7923 14.9821 8.87653 15.1942 8.87653C15.4063 8.87653 15.6097 8.7923 15.7596 8.64237C15.9096 8.49243 15.9939 8.28908 15.9939 8.07704V7.90115C15.9897 7.6919 15.9036 7.49263 15.7541 7.34613C15.6045 7.19964 15.4035 7.11761 15.1942 7.11765V7.10166ZM12.0754 14.401H11.9155C11.7034 14.401 11.5 14.4852 11.35 14.6352C11.2 14.7851 11.1158 14.9885 11.1158 15.2005C11.1158 15.4125 11.2 15.6159 11.35 15.7658C11.5 15.9158 11.7034 16 11.9155 16H12.0754C12.2875 16 12.4909 15.9158 12.6409 15.7658C12.7908 15.6159 12.8751 15.4125 12.8751 15.2005C12.8751 14.9885 12.7908 14.7851 12.6409 14.6352C12.4909 14.4852 12.2875 14.401 12.0754 14.401ZM11.6835 1.60915C11.8956 1.60915 12.099 1.52492 12.249 1.37499C12.399 1.22506 12.4832 1.0217 12.4832 0.809664C12.4832 0.597625 12.399 0.394271 12.249 0.244338C12.099 0.0944041 11.8956 0.0101722 11.6835 0.0101722H11.5156C11.3035 0.0101722 11.1001 0.0944041 10.9501 0.244338C10.8002 0.394271 10.7159 0.597625 10.7159 0.809664C10.7159 1.0217 10.8002 1.22506 10.9501 1.37499C11.1001 1.52492 11.3035 1.60915 11.5156 1.60915H11.6835Z" fill="#F5F3C2"/>
</svg>
