<svg width="14" height="12" viewBox="0 0 14 12" fill="none" xmlns="http://www.w3.org/2000/svg">
<path d="M3.00065 0C4.11066 0.000148887 5.18428 0.39584 6.0289 1.11608C6.87351 1.83631 7.43383 2.83395 7.60932 3.93C8.011 3.52878 8.48784 3.21069 9.01256 2.99392C9.53728 2.77714 10.0996 2.66594 10.6673 2.66667H13.6673V4.33333C13.6673 4.90239 13.5552 5.46588 13.3375 5.99163C13.1197 6.51737 12.8005 6.99508 12.3981 7.39746C11.9957 7.79985 11.518 8.11904 10.9923 8.33681C10.4665 8.55458 9.90305 8.66667 9.33398 8.66667H7.66732V12H6.33398V6.66667H5.00065C3.76297 6.66667 2.57599 6.175 1.70082 5.29983C0.82565 4.42466 0.333984 3.23768 0.333984 2V0H3.00065ZM12.334 4H10.6673C9.87167 4 9.10861 4.31607 8.546 4.87868C7.98339 5.44129 7.66732 6.20435 7.66732 7V7.33333H9.33398C9.72795 7.33333 10.1181 7.25574 10.482 7.10497C10.846 6.95421 11.1767 6.73323 11.4553 6.45465C11.7339 6.17608 11.9549 5.84536 12.1056 5.48138C12.2564 5.11741 12.334 4.7273 12.334 4.33333V4ZM3.00065 1.33333H1.66732V2C1.66732 2.88406 2.01851 3.7319 2.64363 4.35702C3.26875 4.98214 4.1166 5.33333 5.00065 5.33333H6.33398V4.66667C6.33398 3.78261 5.98279 2.93477 5.35767 2.30964C4.73255 1.68452 3.88471 1.33333 3.00065 1.33333Z" fill="#F7F7F7"/>
</svg>
