<svg width="14" height="14" viewBox="0 0 14 14" fill="none" xmlns="http://www.w3.org/2000/svg">
<g clip-path="url(#clip0_8670_57371)">
<path d="M6.64645 0.353554L3.47855 3.52145C3.16357 3.83643 3.38665 4.375 3.83211 4.375L10.1679 4.375C10.6133 4.375 10.8364 3.83643 10.5214 3.52145L7.35355 0.353554C7.15829 0.158292 6.84171 0.158292 6.64645 0.353554Z" fill="#F7F7F7"/>
<path d="M6.64645 13.6464L3.47855 10.4786C3.16357 10.1636 3.38665 9.625 3.83211 9.625L10.1679 9.625C10.6133 9.625 10.8364 10.1636 10.5214 10.4786L7.35355 13.6464C7.15829 13.8417 6.84171 13.8417 6.64645 13.6464Z" fill="#F7F7F7"/>
<rect x="0.875" y="6.125" width="12.25" height="1.75" rx="0.5" fill="#D9D9D9"/>
</g>
<defs>
<clipPath id="clip0_8670_57371">
<rect width="14" height="14" fill="white"/>
</clipPath>
</defs>
</svg>
