<svg width="20" height="20" viewBox="0 0 20 20" fill="none" xmlns="http://www.w3.org/2000/svg">
<g clip-path="url(#clip0_9238_55777)">
<path d="M8 9H2C1.44772 9 1 8.55228 1 8V2C1 1.44772 1.44772 1 2 1H9C9.55228 1 10 1.44772 10 2V3" stroke="white" stroke-width="2"/>
<path d="M15 7H18C18.5523 7 19 7.44772 19 8V18C19 18.5523 18.5523 19 18 19H8C7.44772 19 7 18.5523 7 18V12" stroke="white" stroke-width="2"/>
<path d="M6 5C10.4184 5 14 8.5816 14 13L11.3332 11.6668" stroke="#F7F7F7" stroke-width="2" stroke-linecap="round" stroke-linejoin="round"/>
</g>
<defs>
<clipPath id="clip0_9238_55777">
<rect width="20" height="20" fill="white"/>
</clipPath>
</defs>
</svg>
