<svg width="18" height="16" viewBox="0 0 18 16" fill="none" xmlns="http://www.w3.org/2000/svg">
<path d="M18 9.90389C18 10.0725 17.9313 10.2342 17.8089 10.3534C17.6866 10.4726 17.5206 10.5396 17.3476 10.5396H16.0427V11.811C16.0427 11.9797 15.974 12.1414 15.8516 12.2606C15.7293 12.3798 15.5633 12.4468 15.3903 12.4468C15.2173 12.4468 15.0513 12.3798 14.929 12.2606C14.8066 12.1414 14.7379 11.9797 14.7379 11.811V10.5396H13.433C13.26 10.5396 13.094 10.4726 12.9717 10.3534C12.8493 10.2342 12.7806 10.0725 12.7806 9.90389C12.7806 9.73528 12.8493 9.57358 12.9717 9.45436C13.094 9.33514 13.26 9.26816 13.433 9.26816H14.7379V7.99672C14.7379 7.82812 14.8066 7.66642 14.929 7.5472C15.0513 7.42798 15.2173 7.361 15.3903 7.361C15.5633 7.361 15.7293 7.42798 15.8516 7.5472C15.974 7.66642 16.0427 7.82812 16.0427 7.99672V9.26816H17.3476C17.5206 9.26816 17.6866 9.33514 17.8089 9.45436C17.9313 9.57358 18 9.73528 18 9.90389ZM2.99418 3.22881H3.97282V4.18239C3.97282 4.351 4.04155 4.5127 4.16391 4.63192C4.28626 4.75114 4.45221 4.81812 4.62524 4.81812C4.79828 4.81812 4.96422 4.75114 5.08658 4.63192C5.20893 4.5127 5.27767 4.351 5.27767 4.18239V3.22881H6.25631C6.42935 3.22881 6.59529 3.16183 6.71765 3.04261C6.84 2.92339 6.90874 2.76169 6.90874 2.59309C6.90874 2.42449 6.84 2.26279 6.71765 2.14357C6.59529 2.02435 6.42935 1.95737 6.25631 1.95737H5.27767V1.00379C5.27767 0.835183 5.20893 0.673485 5.08658 0.554264C4.96422 0.435043 4.79828 0.368065 4.62524 0.368065C4.45221 0.368065 4.28626 0.435043 4.16391 0.554264C4.04155 0.673485 3.97282 0.835183 3.97282 1.00379V1.95737H2.99418C2.82114 1.95737 2.65519 2.02435 2.53284 2.14357C2.41049 2.26279 2.34175 2.42449 2.34175 2.59309C2.34175 2.76169 2.41049 2.92339 2.53284 3.04261C2.65519 3.16183 2.82114 3.22881 2.99418 3.22881ZM12.7806 13.0825H12.1282V12.4468C12.1282 12.2782 12.0594 12.1165 11.9371 11.9972C11.8147 11.878 11.6488 11.811 11.4757 11.811C11.3027 11.811 11.1367 11.878 11.0144 11.9972C10.892 12.1165 10.8233 12.2782 10.8233 12.4468V13.0825H10.1709C9.99784 13.0825 9.83189 13.1495 9.70954 13.2687C9.58718 13.3879 9.51845 13.5496 9.51845 13.7182C9.51845 13.8868 9.58718 14.0485 9.70954 14.1677C9.83189 14.287 9.99784 14.3539 10.1709 14.3539H10.8233V14.9897C10.8233 15.1583 10.892 15.32 11.0144 15.4392C11.1367 15.5584 11.3027 15.6254 11.4757 15.6254C11.6488 15.6254 11.8147 15.5584 11.9371 15.4392C12.0594 15.32 12.1282 15.1583 12.1282 14.9897V14.3539H12.7806C12.9536 14.3539 13.1196 14.287 13.2419 14.1677C13.3643 14.0485 13.433 13.8868 13.433 13.7182C13.433 13.5496 13.3643 13.3879 13.2419 13.2687C13.1196 13.1495 12.9536 13.0825 12.7806 13.0825ZM12.593 7.17823L3.91573 15.6254C3.79515 15.7441 3.65162 15.8383 3.49344 15.9026C3.33526 15.9669 3.16557 16 2.99418 16C2.82278 16 2.65309 15.9669 2.49491 15.9026C2.33673 15.8383 2.1932 15.7441 2.07262 15.6254L0.384467 13.9805C0.262658 13.863 0.165962 13.7231 0.0999703 13.569C0.0339784 13.4148 0 13.2495 0 13.0825C0 12.9155 0.0339784 12.7501 0.0999703 12.596C0.165962 12.4419 0.262658 12.302 0.384467 12.1845L12.5115 0.368065C12.7571 0.132211 13.0881 0 13.433 0C13.7779 0 14.1089 0.132211 14.3546 0.368065L16.0427 2.01299C16.1645 2.13048 16.2612 2.27034 16.3272 2.42447C16.3932 2.5786 16.4272 2.74395 16.4272 2.91095C16.4272 3.07796 16.3932 3.2433 16.3272 3.39743C16.2612 3.55157 16.1645 3.69142 16.0427 3.80891L12.593 7.17823ZM10.44 4.18239L12.1282 5.82732L15.1212 2.91095L13.433 1.26602L10.44 4.18239ZM11.2066 6.72528L9.51845 5.08035L1.30602 13.0825L2.99418 14.7274L11.2066 6.72528Z" fill="#F7F7F7"/>
</svg>
